{
  "accessors": [
    {
      "bufferView": 2,
      "componentType": 5126,
      "count": 3502,
      "max": [
        0.1871337890625,
        1.5361328125,
        -0.1038818359375
      ],
      "min": [
        -0.16455078125,
        1.0888671875,
        -0.308349609375
      ],
      "type": "VEC3"
    },
    {
      "bufferView": 2,
      "byteOffset": 42024,
      "componentType": 5126,
      "count": 3502,
      "max": [
        1.0,
        0.9998806715011597,
        0.9999878406524658
      ],
      "min": [
        -0.9999991059303284,
        -0.9999434351921082,
        -0.9999884963035583
      ],
      "type": "VEC3"
    },
    {
      "bufferView": 3,
      "componentType": 5126,
      "count": 3502,
      "max": [
        0.9999974966049194,
        0.99997878074646,
        0.999882161617279,
        1.0
      ],
      "min": [
        -1.0,
        -0.9999969005584717,
        -0.9999974966049194,
        1.0
      ],
      "type": "VEC4"
    },
    {
      "bufferView": 1,
      "componentType": 5126,
      "count": 3502,
      "max": [
        0.998046875,
        0.9975605010986328
      ],
      "min": [
        0.0022220611572265625,
        0.0029296875
      ],
      "type": "VEC2"
    },
    {
      "bufferView": 0,
      "componentType": 5125,
      "count": 10620,
      "type": "SCALAR"
    },
    {
      "bufferView": 2,
      "byteOffset": 84048,
      "componentType": 5126,
      "count": 1058,
      "max": [
        0.31816181540489197,
        1.073024034500122,
        0.1881576031446457
      ],
      "min": [
        -0.30635830760002136,
        0.2975321412086487,
        -0.21538344025611877
      ],
      "type": "VEC3"
    },
    {
      "bufferView": 2,
      "byteOffset": 96744,
      "componentType": 5126,
      "count": 1058,
      "max": [
        0.9972941875457764,
        0.999575138092041,
        0.9625557065010071
      ],
      "min": [
        -0.9998420476913452,
        -0.9999955892562866,
        -0.9995726346969604
      ],
      "type": "VEC3"
    },
    {
      "bufferView": 3,
      "byteOffset": 56032,
      "componentType": 5126,
      "count": 1058,
      "max": [
        0.9999603629112244,
        0.9998615384101868,
        0.9988964200019836,
        1.0
      ],
      "min": [
        -0.9999861121177673,
        -0.9996621608734131,
        -0.995752215385437,
        1.0
      ],
      "type": "VEC4"
    },
    {
      "bufferView": 1,
      "byteOffset": 28016,
      "componentType": 5126,
      "count": 1058,
      "max": [
        0.99462890625,
        0.775146484375
      ],
      "min": [
        0.005352020263671875,
        0.009765625
      ],
      "type": "VEC2"
    },
    {
      "bufferView": 0,
      "byteOffset": 42480,
      "componentType": 5125,
      "count": 5085,
      "type": "SCALAR"
    },
    {
      "bufferView": 2,
      "byteOffset": 109440,
      "componentType": 5126,
      "count": 24522,
      "max": [
        0.55810546875,
        1.6513671875,
        0.30908203125
      ],
      "min": [
        -0.55810546875,
        0.0016641616821289063,
        -0.14111328125
      ],
      "type": "VEC3"
    },
    {
      "bufferView": 2,
      "byteOffset": 403704,
      "componentType": 5126,
      "count": 24522,
      "max": [
        1.0,
        0.9999118447303772,
        0.9999999403953552
      ],
      "min": [
        -1.0,
        -0.9999980926513672,
        -0.9999926686286926
      ],
      "type": "VEC3"
    },
    {
      "bufferView": 3,
      "byteOffset": 72960,
      "componentType": 5126,
      "count": 24522,
      "max": [
        1.0,
        0.9999362826347351,
        1.0,
        1.0
      ],
      "min": [
        -1.0,
        -0.9997870326042175,
        -1.0,
        -1.0
      ],
      "type": "VEC4"
    },
    {
      "bufferView": 1,
      "byteOffset": 36480,
      "componentType": 5126,
      "count": 24522,
      "max": [
        0.99951171875,
        0.9992818832397461
      ],
      "min": [
        0.00146484375,
        0.00244140625
      ],
      "type": "VEC2"
    },
    {
      "bufferView": 1,
      "byteOffset": 232656,
      "componentType": 5126,
      "count": 24522,
      "max": [
        0.9990234375,
        1.0
      ],
      "min": [
        0.0,
        0.0
      ],
      "type": "VEC2"
    },
    {
      "bufferView": 0,
      "byteOffset": 62820,
      "componentType": 5125,
      "count": 96525,
      "type": "SCALAR"
    },
    {
      "bufferView": 2,
      "byteOffset": 697968,
      "componentType": 5126,
      "count": 4672,
      "max": [
        0.158935546875,
        1.82421875,
        0.1959228515625
      ],
      "min": [
        -0.158935546875,
        1.5126953125,
        -0.14208984375
      ],
      "type": "VEC3"
    },
    {
      "bufferView": 2,
      "byteOffset": 754032,
      "componentType": 5126,
      "count": 4672,
      "max": [
        0.9972421526908875,
        0.9999321699142456,
        0.9999108910560608
      ],
      "min": [
        -0.9972420930862427,
        -0.9999824166297913,
        -0.998438835144043
      ],
      "type": "VEC3"
    },
    {
      "bufferView": 1,
      "byteOffset": 428832,
      "componentType": 5126,
      "count": 4672,
      "max": [
        0.9921875,
        0.9923324584960938
      ],
      "min": [
        0.004428863525390625,
        0.00732421875
      ],
      "type": "VEC2"
    },
    {
      "bufferView": 1,
      "byteOffset": 466208,
      "componentType": 5126,
      "count": 4672,
      "max": [
        0.0,
        1.0
      ],
      "min": [
        0.0,
        1.0
      ],
      "type": "VEC2"
    },
    {
      "bufferView": 0,
      "byteOffset": 448920,
      "componentType": 5125,
      "count": 17238,
      "type": "SCALAR"
    },
    {
      "bufferView": 2,
      "byteOffset": 810096,
      "componentType": 5126,
      "count": 3744,
      "max": [
        0.56103515625,
        1.16796875,
        0.352294921875
      ],
      "min": [
        -0.56103515625,
        0.97705078125,
        0.1611328125
      ],
      "type": "VEC3"
    },
    {
      "bufferView": 2,
      "byteOffset": 855024,
      "componentType": 5126,
      "count": 3744,
      "max": [
        0.999781608581543,
        0.990398108959198,
        0.9996241331100464
      ],
      "min": [
        -0.9997815489768982,
        -0.99954754114151,
        -0.9886461496353149
      ],
      "type": "VEC3"
    },
    {
      "bufferView": 1,
      "byteOffset": 503584,
      "componentType": 5126,
      "count": 3744,
      "max": [
        0.99462890625,
        0.9950790405273438
      ],
      "min": [
        0.00568389892578125,
        0.00634765625
      ],
      "type": "VEC2"
    },
    {
      "bufferView": 1,
      "byteOffset": 533536,
      "componentType": 5126,
      "count": 3744,
      "max": [
        0.0,
        1.0
      ],
      "min": [
        0.0,
        1.0
      ],
      "type": "VEC2"
    },
    {
      "bufferView": 0,
      "byteOffset": 517872,
      "componentType": 5125,
      "count": 18924,
      "type": "SCALAR"
    }
  ],
  "asset": {
    "extras": {
      "author": "RC-AUREK (https://sketchfab.com/CC-Aurek)",
      "license": "CC-BY-4.0 (http://creativecommons.org/licenses/by/4.0/)",
      "source": "https://sketchfab.com/3d-models/snow-trooper-episode-viii-tlj-751b09d5b8aa49d4809a94676190ea2b",
      "title": "Snow Trooper || Episode VIII: TLJ"
    },
    "generator": "Sketchfab-15.18.0",
    "version": "2.0"
  },
  "bufferViews": [
    {
      "buffer": 0,
      "byteLength": 593568,
      "name": "floatBufferViews",
      "target": 34963
    },
    {
      "buffer": 0,
      "byteLength": 563488,
      "byteOffset": 593568,
      "byteStride": 8,
      "name": "floatBufferViews",
      "target": 34962
    },
    {
      "buffer": 0,
      "byteLength": 899952,
      "byteOffset": 1157056,
      "byteStride": 12,
      "name": "floatBufferViews",
      "target": 34962
    },
    {
      "buffer": 0,
      "byteLength": 465312,
      "byteOffset": 2057008,
      "byteStride": 16,
      "name": "floatBufferViews",
      "target": 34962
    }
  ],
  "buffers": [
    {
      "byteLength": 2522320,
      "uri": "scene.bin"
    }
  ],
  "images": [
    {
      "uri": "textures/Material.010_baseColor.png"
    },
    {
      "uri": "textures/Material.010_normal.png"
    },
    {
      "uri": "textures/Material.008_baseColor.png"
    },
    {
      "uri": "textures/Material.008_normal.png"
    },
    {
      "uri": "textures/Material.006_baseColor.png"
    },
    {
      "uri": "textures/Material.006_normal.png"
    },
    {
      "uri": "textures/Material.007_baseColor.png"
    },
    {
      "uri": "textures/Material.007_metallicRoughness.png"
    }
  ],
  "materials": [
    {
      "doubleSided": true,
      "name": "Material.010",
      "normalTexture": {
        "index": 1
      },
      "pbrMetallicRoughness": {
        "baseColorTexture": {
          "index": 0
        },
        "metallicFactor": 0.0,
        "roughnessFactor": 0.8040408205773457
      }
    },
    {
      "doubleSided": true,
      "name": "Material.008",
      "normalTexture": {
        "index": 3
      },
      "pbrMetallicRoughness": {
        "baseColorTexture": {
          "index": 2
        },
        "metallicFactor": 0.0,
        "roughnessFactor": 0.8040408205773457
      }
    },
    {
      "doubleSided": true,
      "name": "Material.006",
      "normalTexture": {
        "index": 5
      },
      "pbrMetallicRoughness": {
        "baseColorTexture": {
          "index": 4
        },
        "metallicFactor": 0.0,
        "roughnessFactor": 0.8040408205773457
      }
    },
    {
      "doubleSided": true,
      "name": "Material.007",
      "pbrMetallicRoughness": {
        "baseColorTexture": {
          "index": 6
        },
        "metallicFactor": 0.0,
        "metallicRoughnessTexture": {
          "index": 7
        }
      }
    },
    {
      "doubleSided": true,
      "name": "Material.009",
      "pbrMetallicRoughness": {
        "baseColorFactor": [
          0.8,
          0.8,
          0.8,
          1.0
        ],
        "metallicFactor": 0.0,
        "roughnessFactor": 0.8040408205773457
      }
    }
  ],
  "meshes": [
    {
      "name": "d_assault_newera_skb_01_backpack_mesh_lod0:M_D_Assault__b149c46_Material.010_0",
      "primitives": [
        {
          "attributes": {
            "NORMAL": 1,
            "POSITION": 0,
            "TANGENT": 2,
            "TEXCOORD_0": 3
          },
          "indices": 4,
          "material": 0,
          "mode": 4
        }
      ]
    },
    {
      "name": "d_assault_newera_skb_01_cape_mesh_lod0:M_D_Assault_NewE_084ed60_Material.008_0",
      "primitives": [
        {
          "attributes": {
            "NORMAL": 6,
            "POSITION": 5,
            "TANGENT": 7,
            "TEXCOORD_0": 8
          },
          "indices": 9,
          "material": 1,
          "mode": 4
        }
      ]
    },
    {
      "name": "d_assault_newera_skb_01_mesh_lod0:M_D_Assault_NewEra_SK_261d55c_Material.006_0",
      "primitives": [
        {
          "attributes": {
            "NORMAL": 11,
            "POSITION": 10,
            "TANGENT": 12,
            "TEXCOORD_0": 13,
            "TEXCOORD_1": 14
          },
          "indices": 15,
          "material": 2,
          "mode": 4
        }
      ]
    },
    {
      "name": "d_assault_newera_skb_01_mesh_lod0:M_D_Assault_NewEra_SK_e32f87b_Material.007_0",
      "primitives": [
        {
          "attributes": {
            "NORMAL": 17,
            "POSITION": 16,
            "TEXCOORD_0": 18,
            "TEXCOORD_1": 19
          },
          "indices": 20,
          "material": 3,
          "mode": 4
        }
      ]
    },
    {
      "name": "d_assault_newera_skb_01_mesh_lod0:M_D_Assault_NewEra_SK_956f69f_Material.009_0",
      "primitives": [
        {
          "attributes": {
            "NORMAL": 22,
            "POSITION": 21,
            "TEXCOORD_0": 23,
            "TEXCOORD_1": 24
          },
          "indices": 25,
          "material": 4,
          "mode": 4
        }
      ]
    }
  ],
  "nodes": [
    {
      "children": [
        1
      ],
      "matrix": [
        1.0,
        0.0,
        0.0,
        0.0,
        0.0,
        2.220446049250313e-16,
        -1.0,
        0.0,
        0.0,
        1.0,
        2.220446049250313e-16,
        0.0,
        0.0,
        0.0,
        0.0,
        1.0
      ],
      "name": "Sketchfab_model"
    },
    {
      "children": [
        2
      ],
      "matrix": [
        0.009999999776482582,
        0.0,
        0.0,
        0.0,
        0.0,
        0.0,
        0.009999999776482582,
        0.0,
        0.0,
        -0.009999999776482582,
        0.0,
        0.0,
        0.0,
        0.0,
        0.0,
        1.0
      ],
      "name": "68b935e4944c466e96135885edcb4183.fbx"
    },
    {
      "children": [
        3,
        6,
        8,
        10,
        12,
        14
      ],
      "name": "RootNode"
    },
    {
      "children": [
        4
      ],
      "matrix": [
        -29.08647719990347,
        -5.518906457566863,
        -95.51711910171437,
        0.0,
        56.63930913109449,
        79.46723428563203,
        -21.83912397841966,
        0.0,
        77.11008775993375,
        -60.45246356562044,
        -19.98834696773717,
        0.0,
        407.6245422363281,
        590.38623046875,
        -100.54539489746094,
        1.0
      ],
      "name": "Light"
    },
    {
      "children": [
        5
      ],
      "matrix": [
        1.0,
        0.0,
        0.0,
        0.0,
        0.0,
        2.220446049250313e-16,
        1.0,
        0.0,
        0.0,
        -1.0,
        2.220446049250313e-16,
        0.0,
        0.0,
        0.0,
        0.0,
        1.0
      ],
      "name": "Object_4"
    },
    {
      "name": "Object_5"
    },
    {
      "children": [
        7
      ],
      "matrix": [
        100.0,
        0.0,
        0.0,
        0.0,
        0.0,
        99.9999999999999,
        4.371138828673792e-06,
        0.0,
        0.0,
        -4.371138828673792e-06,
        99.9999999999999,
        0.0,
        0.0,
        0.0,
        0.0,
        1.0
      ],
      "name": "d_assault_newera_skb_01_backpack_mesh_lod0:M_D_Assault__b149c46"
    },
    {
      "mesh": 0,
      "name": "d_assault_newera_skb_01_backpack_mesh_lod0:M_D_Assault__b149c46_Material.010_0"
    },
    {
      "children": [
        9
      ],
      "matrix": [
        100.0,
        0.0,
        0.0,
        0.0,
        0.0,
        99.9999999999999,
        4.371138828673792e-06,
        0.0,
        0.0,
        -4.371138828673792e-06,
        99.9999999999999,
        0.0,
        0.0,
        0.0,
        0.0,
        1.0
      ],
      "name": "d_assault_newera_skb_01_cape_mesh_lod0:M_D_Assault_NewE_084ed60"
    },
    {
      "mesh": 1,
      "name": "d_assault_newera_skb_01_cape_mesh_lod0:M_D_Assault_NewE_084ed60_Material.008_0"
    },
    {
      "children": [
        11
      ],
      "matrix": [
        100.0,
        0.0,
        0.0,
        0.0,
        0.0,
        99.9999999999999,
        4.371138828673792e-06,
        0.0,
        0.0,
        -4.371138828673792e-06,
        99.9999999999999,
        0.0,
        0.0,
        0.0,
        0.0,
        1.0
      ],
      "name": "d_assault_newera_skb_01_mesh_lod0:M_D_Assault_NewEra_SK_261d55c"
    },
    {
      "mesh": 2,
      "name": "d_assault_newera_skb_01_mesh_lod0:M_D_Assault_NewEra_SK_261d55c_Material.006_0"
    },
    {
      "children": [
        13
      ],
      "matrix": [
        100.0,
        0.0,
        0.0,
        0.0,
        0.0,
        99.9999999999999,
        4.371138828673792e-06,
        0.0,
        0.0,
        -4.371138828673792e-06,
        99.9999999999999,
        0.0,
        0.0,
        0.0,
        0.0,
        1.0
      ],
      "name": "d_assault_newera_skb_01_mesh_lod0:M_D_Assault_NewEra_SK_e32f87b"
    },
    {
      "mesh": 3,
      "name": "d_assault_newera_skb_01_mesh_lod0:M_D_Assault_NewEra_SK_e32f87b_Material.007_0"
    },
    {
      "children": [
        15
      ],
      "matrix": [
        100.0,
        0.0,
        0.0,
        0.0,
        0.0,
        99.9999999999999,
        4.371138828673792e-06,
        0.0,
        0.0,
        -4.371138828673792e-06,
        99.9999999999999,
        0.0,
        0.0,
        0.0,
        0.0,
        1.0
      ],
      "name": "d_assault_newera_skb_01_mesh_lod0:M_D_Assault_NewEra_SK_956f69f"
    },
    {
      "mesh": 4,
      "name": "d_assault_newera_skb_01_mesh_lod0:M_D_Assault_NewEra_SK_956f69f_Material.009_0"
    }
  ],
  "samplers": [
    {
      "magFilter": 9729,
      "minFilter": 9987,
      "wrapS": 10497,
      "wrapT": 10497
    }
  ],
  "scene": 0,
  "scenes": [
    {
      "name": "Sketchfab_Scene",
      "nodes": [
        0
      ]
    }
  ],
  "textures": [
    {
      "sampler": 0,
      "source": 0
    },
    {
      "sampler": 0,
      "source": 1
    },
    {
      "sampler": 0,
      "source": 2
    },
    {
      "sampler": 0,
      "source": 3
    },
    {
      "sampler": 0,
      "source": 4
    },
    {
      "sampler": 0,
      "source": 5
    },
    {
      "sampler": 0,
      "source": 6
    },
    {
      "sampler": 0,
      "source": 7
    }
  ]
}
