{
  "accessors": [
    {
      "bufferView": 2,
      "componentType": 5126,
      "count": 136,
      "max": [
        0.7973423004150391,
        0.35807299613952637,
        0.7726258039474487
      ],
      "min": [
        -0.79736328125,
        -0.4457366466522217,
        0.1639930009841919
      ],
      "type": "VEC3"
    },
    {
      "bufferView": 2,
      "byteOffset": 1632,
      "componentType": 5126,
      "count": 136,
      "max": [
        0.9828954935073853,
        0.9856528043746948,
        0.9997372031211853
      ],
      "min": [
        -0.9828954339027405,
        -0.9963929653167725,
        -0.9996667504310608
      ],
      "type": "VEC3"
    },
    {
      "bufferView": 1,
      "componentType": 5126,
      "count": 136,
      "max": [
        0.8777333498001099,
        0.9092777371406555
      ],
      "min": [
        4.663617825251265e-10,
        -8.488239444659484e-09
      ],
      "type": "VEC2"
    },
    {
      "bufferView": 0,
      "componentType": 5125,
      "count": 408,
      "type": "SCALAR"
    },
    {
      "bufferView": 2,
      "byteOffset": 3264,
      "componentType": 5126,
      "count": 168,
      "max": [
        0.8452301025390625,
        0.2990732192993164,
        0.5064231157302856
      ],
      "min": [
        -0.8452510833740234,
        -0.41325974464416504,
        0.0
      ],
      "type": "VEC3"
    },
    {
      "bufferView": 2,
      "byteOffset": 5280,
      "componentType": 5126,
      "count": 168,
      "max": [
        1.0,
        1.0,
        1.0
      ],
      "min": [
        -1.0,
        -1.0,
        -1.0
      ],
      "type": "VEC3"
    },
    {
      "bufferView": 1,
      "byteOffset": 1088,
      "componentType": 5126,
      "count": 168,
      "max": [
        1.0000001192092896,
        0.9134730100631714
      ],
      "min": [
        0.1566799283027649,
        -4.986549839713916e-09
      ],
      "type": "VEC2"
    },
    {
      "bufferView": 0,
      "byteOffset": 1632,
      "componentType": 5125,
      "count": 252,
      "type": "SCALAR"
    },
    {
      "bufferView": 2,
      "byteOffset": 7296,
      "componentType": 5126,
      "count": 108,
      "max": [
        0.8613977432250977,
        0.3186050057411194,
        0.5402753949165344
      ],
      "min": [
        -0.8614187240600586,
        -0.4391022026538849,
        0.4366065263748169
      ],
      "type": "VEC3"
    },
    {
      "bufferView": 2,
      "byteOffset": 8592,
      "componentType": 5126,
      "count": 108,
      "max": [
        0.9923241138458252,
        0.9986541271209717,
        0.9947315454483032
      ],
      "min": [
        -0.9923239350318909,
        -0.9986544847488403,
        -0.9947308897972107
      ],
      "type": "VEC3"
    },
    {
      "bufferView": 1,
      "byteOffset": 2432,
      "componentType": 5126,
      "count": 108,
      "max": [
        0.4373738467693329,
        0.7024484872817993
      ],
      "min": [
        0.12239982932806015,
        0.4759770631790161
      ],
      "type": "VEC2"
    },
    {
      "bufferView": 0,
      "byteOffset": 2640,
      "componentType": 5125,
      "count": 264,
      "type": "SCALAR"
    },
    {
      "bufferView": 2,
      "byteOffset": 9888,
      "componentType": 5126,
      "count": 108,
      "max": [
        0.7222309112548828,
        0.20486879348754883,
        0.3607034385204315
      ],
      "min": [
        -0.7222518920898438,
        -0.2136673927307129,
        0.33990833163261414
      ],
      "type": "VEC3"
    },
    {
      "bufferView": 2,
      "byteOffset": 11184,
      "componentType": 5126,
      "count": 108,
      "max": [
        0.9697288274765015,
        0.9698694944381714,
        1.0
      ],
      "min": [
        -0.9697311520576477,
        -0.9698694944381714,
        -0.9999999403953552
      ],
      "type": "VEC3"
    },
    {
      "bufferView": 1,
      "byteOffset": 3296,
      "componentType": 5126,
      "count": 108,
      "max": [
        0.8695892095565796,
        0.904624879360199
      ],
      "min": [
        -5.361193711195256e-09,
        0.45463889837265015
      ],
      "type": "VEC2"
    },
    {
      "bufferView": 0,
      "byteOffset": 3696,
      "componentType": 5125,
      "count": 372,
      "type": "SCALAR"
    }
  ],
  "asset": {
    "extras": {
      "author": "FreeMeshBase (https://sketchfab.com/FreeMeshBase)",
      "license": "CC-BY-4.0 (http://creativecommons.org/licenses/by/4.0/)",
      "source": "https://sketchfab.com/3d-models/fmb-sofa-01-94e9eb8441164c1485b70f2526c51d64",
      "title": "FMB_Sofa_01"
    },
    "generator": "Sketchfab-16.12.0",
    "version": "2.0"
  },
  "bufferViews": [
    {
      "buffer": 0,
      "byteLength": 5184,
      "name": "floatBufferViews",
      "target": 34963
    },
    {
      "buffer": 0,
      "byteLength": 4160,
      "byteOffset": 5184,
      "byteStride": 8,
      "name": "floatBufferViews",
      "target": 34962
    },
    {
      "buffer": 0,
      "byteLength": 12480,
      "byteOffset": 9344,
      "byteStride": 12,
      "name": "floatBufferViews",
      "target": 34962
    }
  ],
  "buffers": [
    {
      "byteLength": 21824,
      "uri": "scene.bin"
    }
  ],
  "materials": [
    {
      "doubleSided": true,
      "name": "BW_02",
      "pbrMetallicRoughness": {
        "baseColorFactor": [
          0.457132,
          0.457132,
          0.457132,
          1.0
        ],
        "metallicFactor": 0.0,
        "roughnessFactor": 0.7937942642902753
      }
    },
    {
      "doubleSided": true,
      "name": "BW_05",
      "pbrMetallicRoughness": {
        "baseColorFactor": [
          0.125,
          0.125,
          0.125,
          1.0
        ],
        "metallicFactor": 0.0,
        "roughnessFactor": 0.9643804828780624
      }
    },
    {
      "doubleSided": true,
      "name": "BW_04",
      "pbrMetallicRoughness": {
        "baseColorFactor": [
          0.0976588,
          0.0976588,
          0.0976588,
          1.0
        ],
        "metallicFactor": 0.0,
        "roughnessFactor": 0.36335558058389517
      }
    },
    {
      "doubleSided": true,
      "name": "BW_01",
      "pbrMetallicRoughness": {
        "baseColorFactor": [
          0.639505,
          0.639505,
          0.639505,
          1.0
        ],
        "metallicFactor": 0.0,
        "roughnessFactor": 0.8387229755247512
      }
    }
  ],
  "meshes": [
    {
      "name": "FMB_Sofa_01_BW_02_0",
      "primitives": [
        {
          "attributes": {
            "NORMAL": 1,
            "POSITION": 0,
            "TEXCOORD_0": 2
          },
          "indices": 3,
          "material": 0,
          "mode": 4
        }
      ]
    },
    {
      "name": "FMB_Sofa_01_BW_05_0",
      "primitives": [
        {
          "attributes": {
            "NORMAL": 5,
            "POSITION": 4,
            "TEXCOORD_0": 6
          },
          "indices": 7,
          "material": 1,
          "mode": 4
        }
      ]
    },
    {
      "name": "FMB_Sofa_01_BW_04_0",
      "primitives": [
        {
          "attributes": {
            "NORMAL": 9,
            "POSITION": 8,
            "TEXCOORD_0": 10
          },
          "indices": 11,
          "material": 2,
          "mode": 4
        }
      ]
    },
    {
      "name": "FMB_Sofa_01_BW_01_0",
      "primitives": [
        {
          "attributes": {
            "NORMAL": 13,
            "POSITION": 12,
            "TEXCOORD_0": 14
          },
          "indices": 15,
          "material": 3,
          "mode": 4
        }
      ]
    }
  ],
  "nodes": [
    {
      "children": [
        1
      ],
      "matrix": [
        1.0,
        0.0,
        0.0,
        0.0,
        0.0,
        2.220446049250313e-16,
        -1.0,
        0.0,
        0.0,
        1.0,
        2.220446049250313e-16,
        0.0,
        0.0,
        0.0,
        0.0,
        1.0
      ],
      "name": "Sketchfab_model"
    },
    {
      "children": [
        2
      ],
      "matrix": [
        0.009999999776482582,
        0.0,
        0.0,
        0.0,
        0.0,
        0.0,
        0.009999999776482582,
        0.0,
        0.0,
        -0.009999999776482582,
        0.0,
        0.0,
        0.0,
        0.0,
        0.0,
        1.0
      ],
      "name": "0c71ca2bc7044a7cb30bde673ecb46d0.fbx"
    },
    {
      "children": [
        3
      ],
      "name": "RootNode"
    },
    {
      "children": [
        4,
        5,
        6,
        7
      ],
      "matrix": [
        145.54986572265625,
        0.0,
        0.0,
        0.0,
        -0.0,
        -2.371308300892499e-05,
        -145.54986572265432,
        0.0,
        0.0,
        145.54986572265432,
        -2.371308300892499e-05,
        0.0,
        -673.4998779296875,
        0.0,
        797.7421875,
        1.0
      ],
      "name": "FMB_Sofa_01"
    },
    {
      "mesh": 0,
      "name": "FMB_Sofa_01_BW_02_0"
    },
    {
      "mesh": 1,
      "name": "FMB_Sofa_01_BW_05_0"
    },
    {
      "mesh": 2,
      "name": "FMB_Sofa_01_BW_04_0"
    },
    {
      "mesh": 3,
      "name": "FMB_Sofa_01_BW_01_0"
    }
  ],
  "scene": 0,
  "scenes": [
    {
      "name": "Sketchfab_Scene",
      "nodes": [
        0
      ]
    }
  ]
}
