{
  "accessors": [
    {
      "bufferView": 2,
      "componentType": 5126,
      "count": 446,
      "max": [
        3.793015718460083,
        4.850727558135986,
        2.6546268463134766
      ],
      "min": [
        -17.713354110717773,
        -4.5452961921691895,
        -12.868481636047363
      ],
      "type": "VEC3"
    },
    {
      "bufferView": 2,
      "byteOffset": 5352,
      "componentType": 5126,
      "count": 446,
      "max": [
        0.8116916418075562,
        0.5539121031761169,
        0.9914337992668152
      ],
      "min": [
        -0.5199019312858582,
        -0.995006799697876,
        -0.9788475036621094
      ],
      "type": "VEC3"
    },
    {
      "bufferView": 1,
      "componentType": 5126,
      "count": 446,
      "max": [
        0.8750002384185791,
        1.0000004768371582
      ],
      "min": [
        0.3749999403953552,
        0.2499999850988388
      ],
      "type": "VEC2"
    },
    {
      "bufferView": 0,
      "componentType": 5125,
      "count": 1512,
      "type": "SCALAR"
    },
    {
      "bufferView": 2,
      "byteOffset": 10704,
      "componentType": 5126,
      "count": 1656,
      "max": [
        4.4165472984313965,
        5.774061679840088,
        2.57328462600708
      ],
      "min": [
        -17.767658233642578,
        -5.5381646156311035,
        -16.7851619720459
      ],
      "type": "VEC3"
    },
    {
      "bufferView": 2,
      "byteOffset": 30576,
      "componentType": 5126,
      "count": 1656,
      "max": [
        0.9969964623451233,
        0.9999812841415405,
        0.995217502117157
      ],
      "min": [
        -0.9981924295425415,
        -1.0,
        -0.9952897429466248
      ],
      "type": "VEC3"
    },
    {
      "bufferView": 1,
      "byteOffset": 3568,
      "componentType": 5126,
      "count": 1656,
      "max": [
        0.8750007748603821,
        1.0000008344650269
      ],
      "min": [
        0.12499986588954926,
        0.0
      ],
      "type": "VEC2"
    },
    {
      "bufferView": 0,
      "byteOffset": 6048,
      "componentType": 5125,
      "count": 4965,
      "type": "SCALAR"
    },
    {
      "bufferView": 2,
      "byteOffset": 50448,
      "componentType": 5126,
      "count": 3734,
      "max": [
        4.400907039642334,
        5.63440465927124,
        3.3637564182281494
      ],
      "min": [
        -10.21714973449707,
        -5.613295555114746,
        -16.404874801635742
      ],
      "type": "VEC3"
    },
    {
      "bufferView": 2,
      "byteOffset": 95256,
      "componentType": 5126,
      "count": 3734,
      "max": [
        0.999160885810852,
        1.0,
        0.9901831746101379
      ],
      "min": [
        -0.9991863369941711,
        -1.0,
        -0.9994936585426331
      ],
      "type": "VEC3"
    },
    {
      "bufferView": 1,
      "byteOffset": 16816,
      "componentType": 5126,
      "count": 3734,
      "max": [
        1.0000001192092896,
        1.0
      ],
      "min": [
        -0.2785950005054474,
        0.0
      ],
      "type": "VEC2"
    },
    {
      "bufferView": 0,
      "byteOffset": 25908,
      "componentType": 5125,
      "count": 8595,
      "type": "SCALAR"
    },
    {
      "bufferView": 2,
      "byteOffset": 140064,
      "componentType": 5126,
      "count": 150,
      "max": [
        3.1898860931396484,
        0.6828931570053101,
        -7.115646839141846
      ],
      "min": [
        2.496791362762451,
        -0.42208099365234375,
        -8.261209487915039
      ],
      "type": "VEC3"
    },
    {
      "bufferView": 2,
      "byteOffset": 141864,
      "componentType": 5126,
      "count": 150,
      "max": [
        0.8900060057640076,
        0.9985828399658203,
        0.9661393165588379
      ],
      "min": [
        -0.1644086092710495,
        -0.9985930919647217,
        -0.9710357785224915
      ],
      "type": "VEC3"
    },
    {
      "bufferView": 1,
      "byteOffset": 46688,
      "componentType": 5126,
      "count": 150,
      "max": [
        0.7545584440231323,
        0.2387036830186844
      ],
      "min": [
        0.2831578850746155,
        0.11529038846492767
      ],
      "type": "VEC2"
    },
    {
      "bufferView": 0,
      "byteOffset": 60288,
      "componentType": 5125,
      "count": 246,
      "type": "SCALAR"
    },
    {
      "bufferView": 2,
      "byteOffset": 143664,
      "componentType": 5126,
      "count": 1687,
      "max": [
        3.8492422103881836,
        1.2462104558944702,
        0.11201357841491699
      ],
      "min": [
        2.2705652713775635,
        -0.9721019268035889,
        -2.304814338684082
      ],
      "type": "VEC3"
    },
    {
      "bufferView": 2,
      "byteOffset": 163908,
      "componentType": 5126,
      "count": 1687,
      "max": [
        0.999739944934845,
        0.9937726855278015,
        0.9999687671661377
      ],
      "min": [
        -0.9999342560768127,
        -0.9937735795974731,
        -0.9998769164085388
      ],
      "type": "VEC3"
    },
    {
      "bufferView": 1,
      "byteOffset": 47888,
      "componentType": 5126,
      "count": 1687,
      "max": [
        1.0,
        1.0
      ],
      "min": [
        0.0,
        0.0
      ],
      "type": "VEC2"
    },
    {
      "bufferView": 0,
      "byteOffset": 61272,
      "componentType": 5125,
      "count": 8658,
      "type": "SCALAR"
    },
    {
      "bufferView": 2,
      "byteOffset": 184152,
      "componentType": 5126,
      "count": 559,
      "max": [
        3.7205958366394043,
        0.5719738006591797,
        -1.1627147197723389
      ],
      "min": [
        2.559065580368042,
        -0.36830681562423706,
        -2.231647253036499
      ],
      "type": "VEC3"
    },
    {
      "bufferView": 2,
      "byteOffset": 190860,
      "componentType": 5126,
      "count": 559,
      "max": [
        0.9999660849571228,
        1.0,
        0.9973375797271729
      ],
      "min": [
        -0.9999661445617676,
        -1.0,
        -0.9973376989364624
      ],
      "type": "VEC3"
    },
    {
      "bufferView": 1,
      "byteOffset": 61384,
      "componentType": 5126,
      "count": 559,
      "max": [
        1.0,
        1.0
      ],
      "min": [
        0.0,
        0.0
      ],
      "type": "VEC2"
    },
    {
      "bufferView": 0,
      "byteOffset": 95904,
      "componentType": 5125,
      "count": 2880,
      "type": "SCALAR"
    },
    {
      "bufferView": 2,
      "byteOffset": 197568,
      "componentType": 5126,
      "count": 256,
      "max": [
        3.877263069152832,
        0.4343148171901703,
        -1.8620619773864746
      ],
      "min": [
        3.6439614295959473,
        -0.2785550057888031,
        -2.1274266242980957
      ],
      "type": "VEC3"
    },
    {
      "bufferView": 2,
      "byteOffset": 200640,
      "componentType": 5126,
      "count": 256,
      "max": [
        0.9633519649505615,
        0.9318200349807739,
        0.8337012529373169
      ],
      "min": [
        -0.9633520245552063,
        -0.9318202137947083,
        -0.8337012529373169
      ],
      "type": "VEC3"
    },
    {
      "bufferView": 1,
      "byteOffset": 65856,
      "componentType": 5126,
      "count": 256,
      "max": [
        0.9900000095367432,
        0.49000000953674316
      ],
      "min": [
        0.01000000536441803,
        0.01000000536441803
      ],
      "type": "VEC2"
    },
    {
      "bufferView": 0,
      "byteOffset": 107424,
      "componentType": 5125,
      "count": 372,
      "type": "SCALAR"
    },
    {
      "bufferView": 2,
      "byteOffset": 203712,
      "componentType": 5126,
      "count": 1118,
      "max": [
        3.5374624729156494,
        0.9311925768852234,
        -0.7755064964294434
      ],
      "min": [
        3.311347723007202,
        -0.7966195940971375,
        -1.0774976015090942
      ],
      "type": "VEC3"
    },
    {
      "bufferView": 2,
      "byteOffset": 217128,
      "componentType": 5126,
      "count": 1118,
      "max": [
        0.9991278052330017,
        0.9981136322021484,
        0.9905620217323303
      ],
      "min": [
        -0.9991277456283569,
        -0.998113751411438,
        -0.9905617833137512
      ],
      "type": "VEC3"
    },
    {
      "bufferView": 1,
      "byteOffset": 67904,
      "componentType": 5126,
      "count": 1118,
      "max": [
        1.0,
        1.0
      ],
      "min": [
        0.0,
        0.0
      ],
      "type": "VEC2"
    },
    {
      "bufferView": 0,
      "byteOffset": 108912,
      "componentType": 5125,
      "count": 5760,
      "type": "SCALAR"
    }
  ],
  "asset": {
    "extras": {
      "author": "Ulrik_Selvik (https://sketchfab.com/Nemi66)",
      "license": "CC-BY-4.0 (http://creativecommons.org/licenses/by/4.0/)",
      "source": "https://sketchfab.com/3d-models/dialga-model-50b120ac218140a598c55ab2af81192d",
      "title": "Dialga model"
    },
    "generator": "Sketchfab-14.87.0",
    "version": "2.0"
  },
  "bufferViews": [
    {
      "buffer": 0,
      "byteLength": 131952,
      "name": "floatBufferViews",
      "target": 34963
    },
    {
      "buffer": 0,
      "byteLength": 76848,
      "byteOffset": 131952,
      "byteStride": 8,
      "name": "floatBufferViews",
      "target": 34962
    },
    {
      "buffer": 0,
      "byteLength": 230544,
      "byteOffset": 208800,
      "byteStride": 12,
      "name": "floatBufferViews",
      "target": 34962
    }
  ],
  "buffers": [
    {
      "byteLength": 439344,
      "uri": "scene.bin"
    }
  ],
  "extensionsUsed": [
    "KHR_materials_emissive_strength"
  ],
  "materials": [
    {
      "doubleSided": true,
      "extensions": {
        "KHR_materials_emissive_strength": {
          "emissiveStrength": 2.8003626746800787
        }
      },
      "name": "Material.008",
      "pbrMetallicRoughness": {
        "baseColorFactor": [
          0.10217788264207509,
          0.6143177102015472,
          0.8173331072875022,
          1.0
        ],
        "metallicFactor": 0.0,
        "roughnessFactor": 0.8211145618000169
      }
    },
    {
      "doubleSided": true,
      "name": "Material",
      "pbrMetallicRoughness": {
        "baseColorFactor": [
          0.0164323,
          0.0817126999999999,
          0.21610000000000004,
          1.0
        ],
        "metallicFactor": 0.0,
        "roughnessFactor": 0.9826622332594074
      }
    },
    {
      "doubleSided": true,
      "name": "Material.001",
      "pbrMetallicRoughness": {
        "baseColorFactor": [
          0.274378,
          0.426224,
          0.438548,
          1.0
        ],
        "metallicFactor": 0.9120169191372874,
        "roughnessFactor": 0.3371292993092555
      }
    },
    {
      "alphaMode": "BLEND",
      "doubleSided": true,
      "name": "Material.002",
      "pbrMetallicRoughness": {
        "baseColorFactor": [
          0.00994546292724111,
          0.05035510413035979,
          0.3832893789733458,
          0.7054078599377153
        ],
        "metallicFactor": 0.0,
        "roughnessFactor": 0.8232682621317782
      }
    },
    {
      "doubleSided": true,
      "name": "Material.003",
      "pbrMetallicRoughness": {
        "baseColorFactor": [
          0.0,
          0.0,
          0.0,
          1.0
        ],
        "metallicFactor": 0.0
      }
    },
    {
      "doubleSided": true,
      "name": "material_0",
      "pbrMetallicRoughness": {
        "baseColorFactor": [
          0.8,
          0.125447,
          0.0773564,
          1.0
        ],
        "metallicFactor": 0.0,
        "roughnessFactor": 0.9406581487793734
      }
    },
    {
      "doubleSided": true,
      "name": "Material.005",
      "pbrMetallicRoughness": {
        "baseColorFactor": [
          0.8,
          0.8,
          0.8,
          1.0
        ],
        "metallicFactor": 0.0,
        "roughnessFactor": 0.8211145618000169
      }
    },
    {
      "doubleSided": true,
      "emissiveFactor": [
        0.5949190924288912,
        0.00624240335465223,
        0.00624240335465223
      ],
      "extensions": {
        "KHR_materials_emissive_strength": {
          "emissiveStrength": 2.374991082210371
        }
      },
      "name": "Material.007",
      "pbrMetallicRoughness": {
        "baseColorFactor": [
          0.8,
          0.8,
          0.8,
          1.0
        ],
        "metallicFactor": 0.0,
        "roughnessFactor": 0.8040408205773457
      }
    }
  ],
  "meshes": [
    {
      "name": "Dialga_Material.008_0",
      "primitives": [
        {
          "attributes": {
            "NORMAL": 1,
            "POSITION": 0,
            "TEXCOORD_0": 2
          },
          "indices": 3,
          "material": 0,
          "mode": 4
        }
      ]
    },
    {
      "name": "Dialga_Material_0",
      "primitives": [
        {
          "attributes": {
            "NORMAL": 5,
            "POSITION": 4,
            "TEXCOORD_0": 6
          },
          "indices": 7,
          "material": 1,
          "mode": 4
        }
      ]
    },
    {
      "name": "Dialga_Material.001_0",
      "primitives": [
        {
          "attributes": {
            "NORMAL": 9,
            "POSITION": 8,
            "TEXCOORD_0": 10
          },
          "indices": 11,
          "material": 2,
          "mode": 4
        }
      ]
    },
    {
      "name": "Dialga_Material.002_0",
      "primitives": [
        {
          "attributes": {
            "NORMAL": 13,
            "POSITION": 12,
            "TEXCOORD_0": 14
          },
          "indices": 15,
          "material": 3,
          "mode": 4
        }
      ]
    },
    {
      "name": "Dialga_Material.003_0",
      "primitives": [
        {
          "attributes": {
            "NORMAL": 17,
            "POSITION": 16,
            "TEXCOORD_0": 18
          },
          "indices": 19,
          "material": 4,
          "mode": 4
        }
      ]
    },
    {
      "name": "Dialga_Material.004_0",
      "primitives": [
        {
          "attributes": {
            "NORMAL": 21,
            "POSITION": 20,
            "TEXCOORD_0": 22
          },
          "indices": 23,
          "material": 5,
          "mode": 4
        }
      ]
    },
    {
      "name": "Dialga_Material.005_0",
      "primitives": [
        {
          "attributes": {
            "NORMAL": 25,
            "POSITION": 24,
            "TEXCOORD_0": 26
          },
          "indices": 27,
          "material": 6,
          "mode": 4
        }
      ]
    },
    {
      "name": "Dialga_Material.007_0",
      "primitives": [
        {
          "attributes": {
            "NORMAL": 29,
            "POSITION": 28,
            "TEXCOORD_0": 30
          },
          "indices": 31,
          "material": 7,
          "mode": 4
        }
      ]
    }
  ],
  "nodes": [
    {
      "children": [
        1
      ],
      "matrix": [
        1.0,
        0.0,
        0.0,
        0.0,
        0.0,
        2.220446049250313e-16,
        -1.0,
        0.0,
        0.0,
        1.0,
        2.220446049250313e-16,
        0.0,
        0.0,
        0.0,
        0.0,
        1.0
      ],
      "name": "Sketchfab_model"
    },
    {
      "children": [
        2
      ],
      "matrix": [
        0.009999999776482582,
        0.0,
        0.0,
        0.0,
        0.0,
        0.0,
        0.009999999776482582,
        0.0,
        0.0,
        -0.009999999776482582,
        0.0,
        0.0,
        0.0,
        0.0,
        0.0,
        1.0
      ],
      "name": "fc288269679e4e8fbd7720e1133b4ebb.fbx"
    },
    {
      "children": [
        3,
        6,
        8,
        11
      ],
      "name": "RootNode"
    },
    {
      "children": [
        4
      ],
      "matrix": [
        -29.08647719990347,
        -5.518906457566863,
        -95.51711910171437,
        0.0,
        56.63930913109449,
        79.46723428563203,
        -21.83912397841966,
        0.0,
        77.11008775993375,
        -60.45246356562044,
        -19.98834696773717,
        0.0,
        1573.392822265625,
        884.8922729492188,
        -246.6574249267578,
        1.0
      ],
      "name": "Light"
    },
    {
      "children": [
        5
      ],
      "matrix": [
        1.0,
        0.0,
        0.0,
        0.0,
        0.0,
        2.220446049250313e-16,
        1.0,
        0.0,
        0.0,
        -1.0,
        2.220446049250313e-16,
        0.0,
        0.0,
        0.0,
        0.0,
        1.0
      ],
      "name": "Object_4"
    },
    {
      "name": "Object_5"
    },
    {
      "children": [
        7
      ],
      "matrix": [
        -65.15581009765468,
        -44.527143038140764,
        -61.41704928909654,
        0.0,
        -32.40135466989878,
        89.5395708958271,
        -30.542085476036902,
        0.0,
        68.59207001076176,
        1.2755314797120858e-05,
        -72.76761921184276,
        0.0,
        735.88916015625,
        495.8309326171875,
        692.5791015625,
        1.0
      ],
      "name": "Camera"
    },
    {
      "name": "Object_7"
    },
    {
      "children": [
        9
      ],
      "matrix": [
        -29.08647719990347,
        -5.518906457566863,
        -95.51711910171437,
        0.0,
        56.63930913109449,
        79.46723428563203,
        -21.83912397841966,
        0.0,
        77.11008775993375,
        -60.45246356562044,
        -19.98834696773717,
        0.0,
        -465.3653259277344,
        590.38623046875,
        885.0855102539063,
        1.0
      ],
      "name": "Light.001"
    },
    {
      "children": [
        10
      ],
      "matrix": [
        1.0,
        0.0,
        0.0,
        0.0,
        0.0,
        2.220446049250313e-16,
        1.0,
        0.0,
        0.0,
        -1.0,
        2.220446049250313e-16,
        0.0,
        0.0,
        0.0,
        0.0,
        1.0
      ],
      "name": "Object_9"
    },
    {
      "name": "Object_10"
    },
    {
      "children": [
        12,
        13,
        14,
        15,
        16,
        17,
        18,
        19
      ],
      "matrix": [
        71.00440693588698,
        -14.041949655518295,
        -1.6823798329790632e-06,
        0.0,
        -4.042319120421387e-06,
        -1.1539084658361582e-05,
        -74.29429626464743,
        0.0,
        14.399067877702922,
        72.81020799587533,
        -1.2092028957715827e-05,
        0.0,
        421.84210205078125,
        617.84716796875,
        -30.073976516723633,
        1.0
      ],
      "name": "Dialga"
    },
    {
      "mesh": 0,
      "name": "Dialga_Material.008_0"
    },
    {
      "mesh": 1,
      "name": "Dialga_Material_0"
    },
    {
      "mesh": 2,
      "name": "Dialga_Material.001_0"
    },
    {
      "mesh": 3,
      "name": "Dialga_Material.002_0"
    },
    {
      "mesh": 4,
      "name": "Dialga_Material.003_0"
    },
    {
      "mesh": 5,
      "name": "Dialga_Material.004_0"
    },
    {
      "mesh": 6,
      "name": "Dialga_Material.005_0"
    },
    {
      "mesh": 7,
      "name": "Dialga_Material.007_0"
    }
  ],
  "scene": 0,
  "scenes": [
    {
      "name": "Sketchfab_Scene",
      "nodes": [
        0
      ]
    }
  ]
}
