{
  "accessors": [
    {
      "bufferView": 2,
      "componentType": 5126,
      "count": 432,
      "max": [
        -0.4438396096229553,
        0.09385324269533157,
        1.6889389753341675
      ],
      "min": [
        -0.5163009762763977,
        -0.028859900310635567,
        1.5818530321121216
      ],
      "type": "VEC3"
    },
    {
      "bufferView": 2,
      "byteOffset": 5184,
      "componentType": 5126,
      "count": 432,
      "max": [
        -0.7376554012298584,
        0.30483534932136536,
        0.6413611769676208
      ],
      "min": [
        -0.8951076865196228,
        0.0057180095463991165,
        0.4187818169593811
      ],
      "type": "VEC3"
    },
    {
      "bufferView": 1,
      "componentType": 5126,
      "count": 432,
      "max": [
        1.0056689977645874,
        0.994306743144989
      ],
      "min": [
        0.0,
        0.0
      ],
      "type": "VEC2"
    },
    {
      "bufferView": 0,
      "componentType": 5125,
      "count": 432,
      "type": "SCALAR"
    },
    {
      "bufferView": 2,
      "byteOffset": 10368,
      "componentType": 5126,
      "count": 14076,
      "max": [
        2.9042561054229736,
        0.8083236217498779,
        2.089055061340332
      ],
      "min": [
        -2.9042561054229736,
        -0.5884009003639221,
        -2.2460339069366455
      ],
      "type": "VEC3"
    },
    {
      "bufferView": 2,
      "byteOffset": 179280,
      "componentType": 5126,
      "count": 14076,
      "max": [
        0.9993686676025391,
        0.9999154806137085,
        0.9964199662208557
      ],
      "min": [
        -0.9993686676025391,
        -0.999896764755249,
        -0.9494138956069946
      ],
      "type": "VEC3"
    },
    {
      "bufferView": 1,
      "byteOffset": 3456,
      "componentType": 5126,
      "count": 14076,
      "max": [
        0.998046875,
        0.287109375
      ],
      "min": [
        0.001953125,
        0.001953125
      ],
      "type": "VEC2"
    },
    {
      "bufferView": 0,
      "byteOffset": 1728,
      "componentType": 5125,
      "count": 14076,
      "type": "SCALAR"
    },
    {
      "bufferView": 2,
      "byteOffset": 348192,
      "componentType": 5126,
      "count": 7968,
      "max": [
        3.1903789043426514,
        0.07126610726118088,
        2.049269914627075
      ],
      "min": [
        -3.1903789043426514,
        -0.5333622097969055,
        -3.005492925643921
      ],
      "type": "VEC3"
    },
    {
      "bufferView": 2,
      "byteOffset": 443808,
      "componentType": 5126,
      "count": 7968,
      "max": [
        0.9859825372695923,
        0.9999949932098389,
        0.9985731840133667
      ],
      "min": [
        -0.9859825372695923,
        -1.0,
        -0.9918602108955383
      ],
      "type": "VEC3"
    },
    {
      "bufferView": 1,
      "byteOffset": 116064,
      "componentType": 5126,
      "count": 7968,
      "max": [
        0.99609375,
        0.984375
      ],
      "min": [
        0.00390625,
        0.00390625
      ],
      "type": "VEC2"
    },
    {
      "bufferView": 0,
      "byteOffset": 58032,
      "componentType": 5125,
      "count": 7968,
      "type": "SCALAR"
    },
    {
      "bufferView": 2,
      "byteOffset": 539424,
      "componentType": 5126,
      "count": 432,
      "max": [
        0.5163009762763977,
        0.09385324269533157,
        1.6889389753341675
      ],
      "min": [
        0.4438396096229553,
        -0.028859900310635567,
        1.5818530321121216
      ],
      "type": "VEC3"
    },
    {
      "bufferView": 2,
      "byteOffset": 544608,
      "componentType": 5126,
      "count": 432,
      "max": [
        0.8951076865196228,
        0.30483534932136536,
        0.6413611769676208
      ],
      "min": [
        0.7376554012298584,
        0.0057180095463991165,
        0.4187818169593811
      ],
      "type": "VEC3"
    },
    {
      "bufferView": 1,
      "byteOffset": 179808,
      "componentType": 5126,
      "count": 432,
      "max": [
        1.0056689977645874,
        0.994306743144989
      ],
      "min": [
        0.0,
        0.0
      ],
      "type": "VEC2"
    },
    {
      "bufferView": 0,
      "byteOffset": 89904,
      "componentType": 5125,
      "count": 432,
      "type": "SCALAR"
    }
  ],
  "asset": {
    "extras": {
      "author": "Mariokart07 (https://sketchfab.com/Mariokart07)",
      "license": "CC-BY-4.0 (http://creativecommons.org/licenses/by/4.0/)",
      "source": "https://sketchfab.com/3d-models/kyogre-254893c64a634279aa7525b09479116d",
      "title": "Kyogre"
    },
    "generator": "Sketchfab-16.59.0",
    "version": "2.0"
  },
  "bufferViews": [
    {
      "buffer": 0,
      "byteLength": 91632,
      "name": "floatBufferViews",
      "target": 34963
    },
    {
      "buffer": 0,
      "byteLength": 183264,
      "byteOffset": 91632,
      "byteStride": 8,
      "name": "floatBufferViews",
      "target": 34962
    },
    {
      "buffer": 0,
      "byteLength": 549792,
      "byteOffset": 274896,
      "byteStride": 12,
      "name": "floatBufferViews",
      "target": 34962
    }
  ],
  "buffers": [
    {
      "byteLength": 824688,
      "uri": "scene.bin"
    }
  ],
  "extensionsUsed": [
    "KHR_materials_unlit"
  ],
  "images": [
    {
      "uri": "textures/material_0_baseColor.png"
    },
    {
      "uri": "textures/material_1_baseColor.png"
    },
    {
      "uri": "textures/material_2_baseColor.png"
    }
  ],
  "materials": [
    {
      "doubleSided": true,
      "extensions": {
        "KHR_materials_unlit": {}
      },
      "name": "material_0",
      "pbrMetallicRoughness": {
        "baseColorTexture": {
          "index": 0
        },
        "metallicFactor": 0.0
      }
    },
    {
      "doubleSided": true,
      "extensions": {
        "KHR_materials_unlit": {}
      },
      "name": "material_1",
      "pbrMetallicRoughness": {
        "baseColorTexture": {
          "index": 1
        },
        "metallicFactor": 0.0
      }
    },
    {
      "doubleSided": true,
      "extensions": {
        "KHR_materials_unlit": {}
      },
      "name": "material_2",
      "pbrMetallicRoughness": {
        "baseColorTexture": {
          "index": 2
        },
        "metallicFactor": 0.0
      }
    }
  ],
  "meshes": [
    {
      "name": "Object_0",
      "primitives": [
        {
          "attributes": {
            "NORMAL": 1,
            "POSITION": 0,
            "TEXCOORD_0": 2
          },
          "indices": 3,
          "material": 0,
          "mode": 4
        }
      ]
    },
    {
      "name": "Object_1",
      "primitives": [
        {
          "attributes": {
            "NORMAL": 5,
            "POSITION": 4,
            "TEXCOORD_0": 6
          },
          "indices": 7,
          "material": 1,
          "mode": 4
        }
      ]
    },
    {
      "name": "Object_2",
      "primitives": [
        {
          "attributes": {
            "NORMAL": 9,
            "POSITION": 8,
            "TEXCOORD_0": 10
          },
          "indices": 11,
          "material": 2,
          "mode": 4
        }
      ]
    },
    {
      "name": "Object_3",
      "primitives": [
        {
          "attributes": {
            "NORMAL": 13,
            "POSITION": 12,
            "TEXCOORD_0": 14
          },
          "indices": 15,
          "material": 0,
          "mode": 4
        }
      ]
    }
  ],
  "nodes": [
    {
      "children": [
        1
      ],
      "matrix": [
        1.0,
        0.0,
        0.0,
        0.0,
        0.0,
        2.220446049250313e-16,
        -1.0,
        0.0,
        0.0,
        1.0,
        2.220446049250313e-16,
        0.0,
        0.0,
        0.0,
        0.0,
        1.0
      ],
      "name": "Sketchfab_model"
    },
    {
      "children": [
        2
      ],
      "name": "root"
    },
    {
      "children": [
        3
      ],
      "matrix": [
        1.0,
        0.0,
        0.0,
        0.0,
        0.0,
        2.220446049250313e-16,
        1.0,
        0.0,
        0.0,
        -1.0,
        2.220446049250313e-16,
        0.0,
        0.0,
        0.0,
        0.0,
        1.0
      ],
      "name": "GLTF_SceneRootNode"
    },
    {
      "children": [
        4,
        6,
        8,
        10
      ],
      "name": "_4"
    },
    {
      "children": [
        5
      ],
      "name": "polygon_0_0"
    },
    {
      "mesh": 0,
      "name": "Object_5"
    },
    {
      "children": [
        7
      ],
      "name": "polygon_0_1"
    },
    {
      "mesh": 1,
      "name": "Object_7"
    },
    {
      "children": [
        9
      ],
      "name": "polygon_0_2"
    },
    {
      "mesh": 2,
      "name": "Object_9"
    },
    {
      "children": [
        11
      ],
      "name": "polygon_0_3"
    },
    {
      "mesh": 3,
      "name": "Object_11"
    }
  ],
  "samplers": [
    {
      "magFilter": 9728,
      "minFilter": 9728,
      "wrapS": 33071,
      "wrapT": 33071
    }
  ],
  "scene": 0,
  "scenes": [
    {
      "name": "Sketchfab_Scene",
      "nodes": [
        0
      ]
    }
  ],
  "textures": [
    {
      "sampler": 0,
      "source": 0
    },
    {
      "sampler": 0,
      "source": 1
    },
    {
      "sampler": 0,
      "source": 2
    }
  ]
}
