{
  "accessors": [
    {
      "bufferView": 2,
      "componentType": 5126,
      "count": 3014,
      "max": [
        3.0999999046325684,
        2.3413796424865723,
        3.817819833755493
      ],
      "min": [
        -6.496431827545166,
        -3.5422847270965576,
        -2.053168535232544
      ],
      "type": "VEC3"
    },
    {
      "bufferView": 2,
      "byteOffset": 36168,
      "componentType": 5126,
      "count": 3014,
      "max": [
        1.0,
        1.0,
        1.0
      ],
      "min": [
        -1.0,
        -1.0,
        -1.0
      ],
      "type": "VEC3"
    },
    {
      "bufferView": 1,
      "componentType": 5126,
      "count": 3014,
      "max": [
        0.9123522043228149,
        0.9325047731399536
      ],
      "min": [
        0.05354350432753563,
        -0.3720470666885376
      ],
      "type": "VEC2"
    },
    {
      "bufferView": 0,
      "componentType": 5125,
      "count": 5334,
      "type": "SCALAR"
    },
    {
      "bufferView": 2,
      "byteOffset": 72336,
      "componentType": 5126,
      "count": 4200,
      "max": [
        4.150022506713867,
        0.8181067109107971,
        1.7754147052764893
      ],
      "min": [
        -1.6583843231201172,
        -2.950800657272339,
        -9.5367431640625e-07
      ],
      "type": "VEC3"
    },
    {
      "bufferView": 2,
      "byteOffset": 122736,
      "componentType": 5126,
      "count": 4200,
      "max": [
        0.9659259915351868,
        0.9659259915351868,
        1.0
      ],
      "min": [
        -0.9659259915351868,
        -0.9659259915351868,
        -1.0
      ],
      "type": "VEC3"
    },
    {
      "bufferView": 1,
      "byteOffset": 24112,
      "componentType": 5126,
      "count": 4200,
      "max": [
        0.7108267545700073,
        0.7933365106582642
      ],
      "min": [
        0.03804159164428711,
        0.29107293486595154
      ],
      "type": "VEC2"
    },
    {
      "bufferView": 0,
      "byteOffset": 21336,
      "componentType": 5125,
      "count": 6420,
      "type": "SCALAR"
    },
    {
      "bufferView": 2,
      "byteOffset": 173136,
      "componentType": 5126,
      "count": 1934,
      "max": [
        0.6345856189727783,
        1.0489346981048584,
        2.059284210205078
      ],
      "min": [
        -10.148994445800781,
        -16.029939651489258,
        -1.002472162246704
      ],
      "type": "VEC3"
    },
    {
      "bufferView": 2,
      "byteOffset": 196344,
      "componentType": 5126,
      "count": 1934,
      "max": [
        0.9911736249923706,
        1.0,
        0.9750653505325317
      ],
      "min": [
        -0.9911736249923706,
        -1.0,
        -0.946464478969574
      ],
      "type": "VEC3"
    },
    {
      "bufferView": 1,
      "byteOffset": 57712,
      "componentType": 5126,
      "count": 1934,
      "max": [
        0.7263286113739014,
        0.7945373058319092
      ],
      "min": [
        0.21708914637565613,
        0.1899608075618744
      ],
      "type": "VEC2"
    },
    {
      "bufferView": 0,
      "byteOffset": 47016,
      "componentType": 5125,
      "count": 3060,
      "type": "SCALAR"
    },
    {
      "bufferView": 2,
      "byteOffset": 219552,
      "componentType": 5126,
      "count": 1208,
      "max": [
        62.47193145751953,
        62.47193908691406,
        3.145261764526367
      ],
      "min": [
        -62.47194290161133,
        -62.47193908691406,
        -2.569251537322998
      ],
      "type": "VEC3"
    },
    {
      "bufferView": 2,
      "byteOffset": 234048,
      "componentType": 5126,
      "count": 1208,
      "max": [
        1.0,
        1.0,
        1.0
      ],
      "min": [
        -1.0,
        -1.0,
        -1.0
      ],
      "type": "VEC3"
    },
    {
      "bufferView": 1,
      "byteOffset": 73184,
      "componentType": 5126,
      "count": 1208,
      "max": [
        0.2953740954399109,
        0.9074543118476868
      ],
      "min": [
        0.10314977169036865,
        0.6749248504638672
      ],
      "type": "VEC2"
    },
    {
      "bufferView": 0,
      "byteOffset": 59256,
      "componentType": 5125,
      "count": 1830,
      "type": "SCALAR"
    },
    {
      "bufferView": 2,
      "byteOffset": 248544,
      "componentType": 5126,
      "count": 1208,
      "max": [
        62.47193145751953,
        62.47193908691406,
        1.653681755065918
      ],
      "min": [
        -62.47194290161133,
        -62.47193908691406,
        -1.0695412158966064
      ],
      "type": "VEC3"
    },
    {
      "bufferView": 2,
      "byteOffset": 263040,
      "componentType": 5126,
      "count": 1208,
      "max": [
        1.0,
        1.0,
        1.0
      ],
      "min": [
        -1.0,
        -1.0,
        -1.0
      ],
      "type": "VEC3"
    },
    {
      "bufferView": 1,
      "byteOffset": 82848,
      "componentType": 5126,
      "count": 1208,
      "max": [
        0.3325788080692291,
        0.9136551022529602
      ],
      "min": [
        0.038041532039642334,
        0.6904268264770508
      ],
      "type": "VEC2"
    },
    {
      "bufferView": 0,
      "byteOffset": 66576,
      "componentType": 5125,
      "count": 1830,
      "type": "SCALAR"
    },
    {
      "bufferView": 2,
      "byteOffset": 277536,
      "componentType": 5126,
      "count": 25200,
      "max": [
        30.108488082885742,
        0.8181068301200867,
        1.775414228439331
      ],
      "min": [
        -1.6583833694458008,
        -3.3773481845855713,
        -9.5367431640625e-07
      ],
      "type": "VEC3"
    },
    {
      "bufferView": 2,
      "byteOffset": 579936,
      "componentType": 5126,
      "count": 25200,
      "max": [
        0.9659267663955688,
        0.9659263491630554,
        1.0
      ],
      "min": [
        -0.9659268260002136,
        -0.9659263491630554,
        -1.0
      ],
      "type": "VEC3"
    },
    {
      "bufferView": 1,
      "byteOffset": 92512,
      "componentType": 5126,
      "count": 25200,
      "max": [
        0.7108267545700073,
        0.7933365106582642
      ],
      "min": [
        0.03804159164428711,
        0.29107293486595154
      ],
      "type": "VEC2"
    },
    {
      "bufferView": 0,
      "byteOffset": 73896,
      "componentType": 5125,
      "count": 38520,
      "type": "SCALAR"
    }
  ],
  "asset": {
    "extras": {
      "author": "tadeus (https://sketchfab.com/tadeus)",
      "license": "CC-BY-4.0 (http://creativecommons.org/licenses/by/4.0/)",
      "source": "https://sketchfab.com/3d-models/low-poly-snack-bar-5ad54ef93c8f4a2c86b84c7c03602046",
      "title": "Low Poly - Snack Bar"
    },
    "generator": "Sketchfab-12.65.0",
    "version": "2.0"
  },
  "bufferViews": [
    {
      "buffer": 0,
      "byteLength": 227976,
      "name": "floatBufferViews",
      "target": 34963
    },
    {
      "buffer": 0,
      "byteLength": 294112,
      "byteOffset": 227976,
      "byteStride": 8,
      "name": "floatBufferViews",
      "target": 34962
    },
    {
      "buffer": 0,
      "byteLength": 882336,
      "byteOffset": 522088,
      "byteStride": 12,
      "name": "floatBufferViews",
      "target": 34962
    }
  ],
  "buffers": [
    {
      "byteLength": 1404424,
      "uri": "scene.bin"
    }
  ],
  "images": [
    {
      "uri": "textures/Material_baseColor.png"
    }
  ],
  "materials": [
    {
      "doubleSided": true,
      "name": "Material",
      "pbrMetallicRoughness": {
        "baseColorTexture": {
          "index": 0
        },
        "metallicFactor": 0.0,
        "roughnessFactor": 0.8040408206
      }
    }
  ],
  "meshes": [
    {
      "name": "Cube.002_Material_0",
      "primitives": [
        {
          "attributes": {
            "NORMAL": 1,
            "POSITION": 0,
            "TEXCOORD_0": 2
          },
          "indices": 3,
          "material": 0,
          "mode": 4
        }
      ]
    },
    {
      "name": "Cylinder.003_Material_0",
      "primitives": [
        {
          "attributes": {
            "NORMAL": 5,
            "POSITION": 4,
            "TEXCOORD_0": 6
          },
          "indices": 7,
          "material": 0,
          "mode": 4
        }
      ]
    },
    {
      "name": "Cube.026_Material_0",
      "primitives": [
        {
          "attributes": {
            "NORMAL": 9,
            "POSITION": 8,
            "TEXCOORD_0": 10
          },
          "indices": 11,
          "material": 0,
          "mode": 4
        }
      ]
    },
    {
      "name": "Cube.027_Material_0",
      "primitives": [
        {
          "attributes": {
            "NORMAL": 13,
            "POSITION": 12,
            "TEXCOORD_0": 14
          },
          "indices": 15,
          "material": 0,
          "mode": 4
        }
      ]
    },
    {
      "name": "Cube.028_Material_0",
      "primitives": [
        {
          "attributes": {
            "NORMAL": 17,
            "POSITION": 16,
            "TEXCOORD_0": 18
          },
          "indices": 19,
          "material": 0,
          "mode": 4
        }
      ]
    },
    {
      "name": "Cylinder.033_Material_0",
      "primitives": [
        {
          "attributes": {
            "NORMAL": 21,
            "POSITION": 20,
            "TEXCOORD_0": 22
          },
          "indices": 23,
          "material": 0,
          "mode": 4
        }
      ]
    }
  ],
  "nodes": [
    {
      "children": [
        1
      ],
      "matrix": [
        1.0,
        0.0,
        0.0,
        0.0,
        0.0,
        2.220446049250313e-16,
        -1.0,
        0.0,
        0.0,
        1.0,
        2.220446049250313e-16,
        0.0,
        0.0,
        0.0,
        0.0,
        1.0
      ],
      "name": "Sketchfab_model"
    },
    {
      "children": [
        2
      ],
      "matrix": [
        1.0,
        0.0,
        0.0,
        0.0,
        0.0,
        0.0,
        1.0,
        0.0,
        0.0,
        -1.0,
        0.0,
        0.0,
        0.0,
        0.0,
        0.0,
        1.0
      ],
      "name": "b1a923af5dda4968946e3cb54f0ad417.fbx"
    },
    {
      "children": [
        3,
        5,
        7,
        9,
        11,
        13,
        15
      ],
      "name": "RootNode"
    },
    {
      "children": [
        4
      ],
      "matrix": [
        100.0,
        0.0,
        0.0,
        0.0,
        0.0,
        -1.629206793918314e-05,
        -99.99999999999868,
        0.0,
        0.0,
        99.99999999999868,
        -1.629206793918314e-05,
        0.0,
        0.0,
        200.0,
        0.0,
        1.0
      ],
      "name": "Cube.002"
    },
    {
      "mesh": 0,
      "name": "Cube.002_Material_0"
    },
    {
      "children": [
        6
      ],
      "matrix": [
        13.295851707458496,
        0.0,
        0.0,
        0.0,
        -0.0,
        -2.1661691932721797e-06,
        -13.29585170745832,
        0.0,
        0.0,
        41.191394805907656,
        -6.71093002687572e-06,
        0.0,
        -262.2571105957031,
        198.60150146484375,
        154.86000061035156,
        1.0
      ],
      "name": "Cylinder.003"
    },
    {
      "mesh": 1,
      "name": "Cylinder.003_Material_0"
    },
    {
      "children": [
        8
      ],
      "matrix": [
        12.849252755486306,
        17.815050753709297,
        -10.495032457763832,
        0.0,
        20.619305676675157,
        -11.959519465907958,
        4.943598241921287,
        0.0,
        -1.538172468087379,
        -11.498651211489191,
        -21.40187966638495,
        0.0,
        209.8043670654297,
        196.4833984375,
        -159.22683715820313,
        1.0
      ],
      "name": "Cube.026"
    },
    {
      "mesh": 2,
      "name": "Cube.026_Material_0"
    },
    {
      "children": [
        10
      ],
      "matrix": [
        5.299612522125244,
        0.0,
        0.0,
        0.0,
        -0.0,
        -8.63416472618102e-07,
        -5.299612522125174,
        0.0,
        0.0,
        75.02980041503807,
        -1.2223906058251679e-05,
        0.0,
        -299.12213134765625,
        656.3159790039063,
        199.89305114746094,
        1.0
      ],
      "name": "Cube.027"
    },
    {
      "mesh": 3,
      "name": "Cube.027_Material_0"
    },
    {
      "children": [
        12
      ],
      "matrix": [
        3.6890764236450195,
        0.0,
        0.0,
        0.0,
        0.0,
        -6.010268372686343e-07,
        -3.6890764236449707,
        0.0,
        0.0,
        99.99999999999868,
        -1.629206793918314e-05,
        0.0,
        302.1584777832031,
        590.8087768554688,
        200.0000762939453,
        1.0
      ],
      "name": "Cube.028"
    },
    {
      "mesh": 4,
      "name": "Cube.028_Material_0"
    },
    {
      "children": [
        14
      ],
      "matrix": [
        -13.295851707457487,
        1.6282719426595534e-15,
        5.177595819386707e-06,
        0.0,
        5.177595819386693e-06,
        1.0038088802412943e-06,
        13.29585170745745,
        0.0,
        -1.2059811828730913e-12,
        41.19139480590808,
        -3.1098637939603955e-06,
        0.0,
        134.05349731445313,
        257.0958557128906,
        -136.09080505371094,
        1.0
      ],
      "name": "Cylinder.033"
    },
    {
      "mesh": 5,
      "name": "Cylinder.033_Material_0"
    },
    {
      "children": [
        16
      ],
      "matrix": [
        309.5340270996094,
        0.0,
        0.0,
        0.0,
        0.0,
        309.53402709960847,
        -2.336916941582801e-05,
        0.0,
        0.0,
        2.336916941582801e-05,
        309.53402709960847,
        0.0,
        0.0,
        434.5555725097656,
        0.0,
        1.0
      ],
      "name": "Area"
    },
    {
      "children": [
        17
      ],
      "matrix": [
        1.0,
        0.0,
        0.0,
        0.0,
        0.0,
        2.220446049250313e-16,
        1.0,
        0.0,
        0.0,
        -1.0,
        2.220446049250313e-16,
        0.0,
        0.0,
        0.0,
        0.0,
        1.0
      ],
      "name": "Object_16"
    },
    {
      "name": "Object_17"
    }
  ],
  "samplers": [
    {
      "magFilter": 9729,
      "minFilter": 9987,
      "wrapS": 10497,
      "wrapT": 10497
    }
  ],
  "scene": 0,
  "scenes": [
    {
      "name": "Sketchfab_Scene",
      "nodes": [
        0
      ]
    }
  ],
  "textures": [
    {
      "sampler": 0,
      "source": 0
    }
  ]
}
