{
  "accessors": [
    {
      "bufferView": 2,
      "componentType": 5126,
      "count": 15360,
      "max": [
        7.322067737579346,
        3.6884255409240723,
        4.665472984313965
      ],
      "min": [
        -5.093127250671387,
        -11.98488712310791,
        -2.3848671913146973
      ],
      "type": "VEC3"
    },
    {
      "bufferView": 2,
      "byteOffset": 184320,
      "componentType": 5126,
      "count": 15360,
      "max": [
        0.9998947381973267,
        0.999902606010437,
        0.9999914169311523
      ],
      "min": [
        -0.999812126159668,
        -0.999947190284729,
        -0.9999551773071289
      ],
      "type": "VEC3"
    },
    {
      "bufferView": 1,
      "componentType": 5126,
      "count": 15360,
      "max": [
        1.0,
        1.0000001192092896
      ],
      "min": [
        0.0,
        0.0
      ],
      "type": "VEC2"
    },
    {
      "bufferView": 0,
      "componentType": 5125,
      "count": 90498,
      "type": "SCALAR"
    },
    {
      "bufferView": 2,
      "byteOffset": 368640,
      "componentType": 5126,
      "count": 7387,
      "max": [
        8.893070220947266,
        -0.4364599883556366,
        4.292749881744385
      ],
      "min": [
        -0.6722736954689026,
        -11.598312377929688,
        -1.9091086387634277
      ],
      "type": "VEC3"
    },
    {
      "bufferView": 2,
      "byteOffset": 457284,
      "componentType": 5126,
      "count": 7387,
      "max": [
        0.9997329711914063,
        0.9999419450759888,
        0.9997278451919556
      ],
      "min": [
        -0.9998235702514648,
        -0.9979422092437744,
        -0.9998040199279785
      ],
      "type": "VEC3"
    },
    {
      "bufferView": 1,
      "byteOffset": 122880,
      "componentType": 5126,
      "count": 7387,
      "max": [
        0.0,
        0.0
      ],
      "min": [
        0.0,
        0.0
      ],
      "type": "VEC2"
    },
    {
      "bufferView": 0,
      "byteOffset": 361992,
      "componentType": 5125,
      "count": 44310,
      "type": "SCALAR"
    },
    {
      "bufferView": 2,
      "byteOffset": 545928,
      "componentType": 5126,
      "count": 2126,
      "max": [
        1.4923505783081055,
        4.495634078979492,
        3.5698599815368652
      ],
      "min": [
        -1.537906527519226,
        1.3390519618988037,
        0.17175573110580444
      ],
      "type": "VEC3"
    },
    {
      "bufferView": 2,
      "byteOffset": 571440,
      "componentType": 5126,
      "count": 2126,
      "max": [
        0.9999490976333618,
        0.9981924295425415,
        0.9952930212020874
      ],
      "min": [
        -0.998096227645874,
        -0.9999871253967285,
        -0.9994779825210571
      ],
      "type": "VEC3"
    },
    {
      "bufferView": 1,
      "byteOffset": 181976,
      "componentType": 5126,
      "count": 2126,
      "max": [
        0.0,
        0.0
      ],
      "min": [
        0.0,
        0.0
      ],
      "type": "VEC2"
    },
    {
      "bufferView": 0,
      "byteOffset": 539232,
      "componentType": 5125,
      "count": 12744,
      "type": "SCALAR"
    },
    {
      "bufferView": 2,
      "byteOffset": 596952,
      "componentType": 5126,
      "count": 262,
      "max": [
        1.3651221990585327,
        2.9092204570770264,
        3.1348280906677246
      ],
      "min": [
        -0.6305080056190491,
        1.833603858947754,
        2.1441333293914795
      ],
      "type": "VEC3"
    },
    {
      "bufferView": 2,
      "byteOffset": 600096,
      "componentType": 5126,
      "count": 262,
      "max": [
        0.9997179508209229,
        0.9947656393051147,
        0.9942290782928467
      ],
      "min": [
        -0.9953675866127014,
        -0.9242109656333923,
        -0.8570061326026917
      ],
      "type": "VEC3"
    },
    {
      "bufferView": 1,
      "byteOffset": 198984,
      "componentType": 5126,
      "count": 262,
      "max": [
        0.894291341304779,
        0.9453959465026855
      ],
      "min": [
        0.058640286326408386,
        0.13496133685112
      ],
      "type": "VEC2"
    },
    {
      "bufferView": 0,
      "byteOffset": 590208,
      "componentType": 5125,
      "count": 1158,
      "type": "SCALAR"
    },
    {
      "bufferView": 2,
      "byteOffset": 603240,
      "componentType": 5126,
      "count": 31744,
      "max": [
        0.9872313737869263,
        0.9975766539573669,
        0.9872314929962158
      ],
      "min": [
        -0.9872310161590576,
        -0.9975766539573669,
        -0.9872310161590576
      ],
      "type": "VEC3"
    },
    {
      "bufferView": 2,
      "byteOffset": 984168,
      "componentType": 5126,
      "count": 31744,
      "max": [
        0.9993996024131775,
        0.9969543218612671,
        0.999399721622467
      ],
      "min": [
        -0.9993996024131775,
        -0.9969543218612671,
        -0.999399721622467
      ],
      "type": "VEC3"
    },
    {
      "bufferView": 1,
      "byteOffset": 201080,
      "componentType": 5126,
      "count": 31744,
      "max": [
        0.9951738119125366,
        0.9927109479904175
      ],
      "min": [
        0.00482696620747447,
        0.007215002551674843
      ],
      "type": "VEC2"
    },
    {
      "bufferView": 0,
      "byteOffset": 594840,
      "componentType": 5125,
      "count": 47616,
      "type": "SCALAR"
    },
    {
      "bufferView": 2,
      "byteOffset": 1365096,
      "componentType": 5126,
      "count": 25650,
      "max": [
        3.7980690002441406,
        7.242034435272217,
        3.7658133506774902
      ],
      "min": [
        -1.5781515836715698,
        -1.3848837614059448,
        -3.5411407947540283
      ],
      "type": "VEC3"
    },
    {
      "bufferView": 2,
      "byteOffset": 1672896,
      "componentType": 5126,
      "count": 25650,
      "max": [
        0.999779224395752,
        0.9999947547912598,
        0.9999690055847168
      ],
      "min": [
        -0.9999179840087891,
        -0.9999876022338867,
        -0.9998528957366943
      ],
      "type": "VEC3"
    },
    {
      "bufferView": 1,
      "byteOffset": 455032,
      "componentType": 5126,
      "count": 25650,
      "max": [
        0.5641413331031799,
        0.727640688419342
      ],
      "min": [
        0.0,
        0.0
      ],
      "type": "VEC2"
    },
    {
      "bufferView": 0,
      "byteOffset": 785304,
      "componentType": 5125,
      "count": 153336,
      "type": "SCALAR"
    },
    {
      "bufferView": 2,
      "byteOffset": 1980696,
      "componentType": 5126,
      "count": 936,
      "max": [
        1.1497037410736084,
        0.6062355041503906,
        -2.468010663986206
      ],
      "min": [
        -1.148740291595459,
        -0.28914695978164673,
        -3.1475894451141357
      ],
      "type": "VEC3"
    },
    {
      "bufferView": 2,
      "byteOffset": 1991928,
      "componentType": 5126,
      "count": 936,
      "max": [
        0.9994634389877319,
        0.9989226460456848,
        0.5033835172653198
      ],
      "min": [
        -0.9971631169319153,
        -0.8700188994407654,
        -0.9993926286697388
      ],
      "type": "VEC3"
    },
    {
      "bufferView": 1,
      "byteOffset": 660232,
      "componentType": 5126,
      "count": 936,
      "max": [
        0.6981358528137207,
        0.8595542907714844
      ],
      "min": [
        0.014324307441711426,
        0.1467856913805008
      ],
      "type": "VEC2"
    },
    {
      "bufferView": 0,
      "byteOffset": 1398648,
      "componentType": 5125,
      "count": 4632,
      "type": "SCALAR"
    },
    {
      "bufferView": 2,
      "byteOffset": 2003160,
      "componentType": 5126,
      "count": 5525,
      "max": [
        3.4925715923309326,
        4.258760929107666,
        4.217105388641357
      ],
      "min": [
        -3.4607021808624268,
        -3.265835762023926,
        -8.408677101135254
      ],
      "type": "VEC3"
    },
    {
      "bufferView": 2,
      "byteOffset": 2069460,
      "componentType": 5126,
      "count": 5525,
      "max": [
        0.999856173992157,
        0.9999963045120239,
        0.9999998211860657
      ],
      "min": [
        -0.9999516606330872,
        -0.9999999403953552,
        -0.9999978542327881
      ],
      "type": "VEC3"
    },
    {
      "bufferView": 0,
      "byteOffset": 1417176,
      "componentType": 5125,
      "count": 15786,
      "type": "SCALAR"
    }
  ],
  "asset": {
    "extras": {
      "author": "andyvy (https://sketchfab.com/andyvy)",
      "license": "CC-BY-4.0 (http://creativecommons.org/licenses/by/4.0/)",
      "source": "https://sketchfab.com/3d-models/mew-vs-mewtwo-459f1cbd8b304a5f9ac77abb63d51219",
      "title": "Mew vs Mewtwo"
    },
    "generator": "Sketchfab-12.65.0",
    "version": "2.0"
  },
  "bufferViews": [
    {
      "buffer": 0,
      "byteLength": 1480320,
      "name": "floatBufferViews",
      "target": 34963
    },
    {
      "buffer": 0,
      "byteLength": 667720,
      "byteOffset": 1480320,
      "byteStride": 8,
      "name": "floatBufferViews",
      "target": 34962
    },
    {
      "buffer": 0,
      "byteLength": 2135760,
      "byteOffset": 2148040,
      "byteStride": 12,
      "name": "floatBufferViews",
      "target": 34962
    }
  ],
  "buffers": [
    {
      "byteLength": 4283800,
      "uri": "scene.bin"
    }
  ],
  "extensionsRequired": [
    "KHR_materials_pbrSpecularGlossiness"
  ],
  "extensionsUsed": [
    "KHR_materials_pbrSpecularGlossiness"
  ],
  "images": [
    {
      "uri": "textures/olho.001_diffuse.png"
    },
    {
      "uri": "textures/Material_diffuse.png"
    },
    {
      "uri": "textures/Material_emissive.png"
    },
    {
      "uri": "textures/OLHO-MEW_diffuse.png"
    }
  ],
  "materials": [
    {
      "doubleSided": true,
      "extensions": {
        "KHR_materials_pbrSpecularGlossiness": {
          "diffuseFactor": [
            0.39266999999999996,
            0.35555799999999993,
            0.45753100000000013,
            1.0
          ],
          "glossinessFactor": 0.5,
          "specularFactor": [
            0.0,
            0.0,
            0.0
          ]
        }
      },
      "name": "corpo"
    },
    {
      "doubleSided": true,
      "extensions": {
        "KHR_materials_pbrSpecularGlossiness": {
          "diffuseFactor": [
            0.502886,
            0.258183,
            0.341914,
            1.0
          ],
          "glossinessFactor": 0.5,
          "specularFactor": [
            0.0,
            0.0,
            0.0
          ]
        }
      },
      "name": "calda"
    },
    {
      "doubleSided": true,
      "extensions": {
        "KHR_materials_pbrSpecularGlossiness": {
          "diffuseFactor": [
            0.39266999999999996,
            0.35555799999999993,
            0.45753100000000013,
            1.0
          ],
          "glossinessFactor": 0.5,
          "specularFactor": [
            0.0,
            0.0,
            0.0
          ]
        }
      },
      "name": "corpo.001"
    },
    {
      "doubleSided": true,
      "extensions": {
        "KHR_materials_pbrSpecularGlossiness": {
          "diffuseFactor": [
            1.0,
            1.0,
            1.0,
            1.0
          ],
          "diffuseTexture": {
            "index": 0
          },
          "glossinessFactor": 0.5,
          "specularFactor": [
            0.0,
            0.0,
            0.0
          ]
        }
      },
      "name": "olho.001"
    },
    {
      "alphaMode": "BLEND",
      "doubleSided": true,
      "emissiveFactor": [
        1.0,
        1.0,
        1.0
      ],
      "emissiveTexture": {
        "index": 2
      },
      "extensions": {
        "KHR_materials_pbrSpecularGlossiness": {
          "diffuseFactor": [
            1.0,
            1.0,
            1.0,
            1.0
          ],
          "diffuseTexture": {
            "index": 1
          },
          "glossinessFactor": 0.0,
          "specularFactor": [
            0.7308550871623577,
            0.011290597136422307,
            0.011290597136422307
          ]
        }
      },
      "name": "Material"
    },
    {
      "doubleSided": true,
      "extensions": {
        "KHR_materials_pbrSpecularGlossiness": {
          "diffuseFactor": [
            1.0,
            0.635917,
            0.959056,
            1.0
          ],
          "glossinessFactor": 0.5,
          "specularFactor": [
            0.0,
            0.0,
            0.0
          ]
        }
      },
      "name": "material"
    },
    {
      "doubleSided": true,
      "extensions": {
        "KHR_materials_pbrSpecularGlossiness": {
          "diffuseFactor": [
            1.0,
            1.0,
            1.0,
            1.0
          ],
          "diffuseTexture": {
            "index": 3
          },
          "glossinessFactor": 0.5,
          "specularFactor": [
            0.0,
            0.0,
            0.0
          ]
        }
      },
      "name": "OLHO-MEW"
    },
    {
      "doubleSided": true,
      "emissiveFactor": [
        1.0,
        0.5163874543316855,
        0.005788868764092421
      ],
      "extensions": {
        "KHR_materials_pbrSpecularGlossiness": {
          "diffuseFactor": [
            0.8666754938916336,
            0.7930901918017227,
            0.0009646888686444415,
            1.0
          ],
          "glossinessFactor": 0.0,
          "specularFactor": [
            1.0,
            1.0,
            1.0
          ]
        }
      },
      "name": "Material.002"
    }
  ],
  "meshes": [
    {
      "name": "Object_0",
      "primitives": [
        {
          "attributes": {
            "NORMAL": 1,
            "POSITION": 0,
            "TEXCOORD_0": 2
          },
          "indices": 3,
          "material": 0,
          "mode": 4
        }
      ]
    },
    {
      "name": "Object_1",
      "primitives": [
        {
          "attributes": {
            "NORMAL": 5,
            "POSITION": 4,
            "TEXCOORD_0": 6
          },
          "indices": 7,
          "material": 1,
          "mode": 4
        }
      ]
    },
    {
      "name": "Object_2",
      "primitives": [
        {
          "attributes": {
            "NORMAL": 9,
            "POSITION": 8,
            "TEXCOORD_0": 10
          },
          "indices": 11,
          "material": 2,
          "mode": 4
        }
      ]
    },
    {
      "name": "Object_3",
      "primitives": [
        {
          "attributes": {
            "NORMAL": 13,
            "POSITION": 12,
            "TEXCOORD_0": 14
          },
          "indices": 15,
          "material": 3,
          "mode": 4
        }
      ]
    },
    {
      "name": "Object_4",
      "primitives": [
        {
          "attributes": {
            "NORMAL": 17,
            "POSITION": 16,
            "TEXCOORD_0": 18
          },
          "indices": 19,
          "material": 4,
          "mode": 4
        }
      ]
    },
    {
      "name": "Object_5",
      "primitives": [
        {
          "attributes": {
            "NORMAL": 21,
            "POSITION": 20,
            "TEXCOORD_0": 22
          },
          "indices": 23,
          "material": 5,
          "mode": 4
        }
      ]
    },
    {
      "name": "Object_6",
      "primitives": [
        {
          "attributes": {
            "NORMAL": 25,
            "POSITION": 24,
            "TEXCOORD_0": 26
          },
          "indices": 27,
          "material": 6,
          "mode": 4
        }
      ]
    },
    {
      "name": "Object_7",
      "primitives": [
        {
          "attributes": {
            "NORMAL": 29,
            "POSITION": 28
          },
          "indices": 30,
          "material": 7,
          "mode": 4
        }
      ]
    }
  ],
  "nodes": [
    {
      "children": [
        1
      ],
      "matrix": [
        1.0,
        0.0,
        0.0,
        0.0,
        0.0,
        2.220446049250313e-16,
        -1.0,
        0.0,
        0.0,
        1.0,
        2.220446049250313e-16,
        0.0,
        0.0,
        0.0,
        0.0,
        1.0
      ],
      "name": "Sketchfab_model"
    },
    {
      "children": [
        2
      ],
      "name": "root"
    },
    {
      "children": [
        3,
        8,
        10,
        13
      ],
      "matrix": [
        1.0,
        0.0,
        0.0,
        0.0,
        0.0,
        2.220446049250313e-16,
        1.0,
        0.0,
        0.0,
        -1.0,
        2.220446049250313e-16,
        0.0,
        0.0,
        0.0,
        0.0,
        1.0
      ],
      "name": "GLTF_SceneRootNode"
    },
    {
      "children": [
        4,
        5,
        6,
        7
      ],
      "matrix": [
        0.6084691665283637,
        -0.3512239112693811,
        -0.39519196120904393,
        0.0,
        0.5249335851177565,
        0.4732110973959401,
        0.38766691525597513,
        0.0,
        0.06308449307897852,
        -0.5499842453391753,
        0.5859243340901624,
        0.0,
        -0.9778844118118286,
        5.547848224639893,
        -0.9409286975860596,
        1.0
      ],
      "name": "mewtwo_0"
    },
    {
      "mesh": 0,
      "name": "Object_4"
    },
    {
      "mesh": 1,
      "name": "Object_5"
    },
    {
      "mesh": 2,
      "name": "Object_6"
    },
    {
      "mesh": 3,
      "name": "Object_7"
    },
    {
      "children": [
        9
      ],
      "matrix": [
        1.163865327835083,
        0.0,
        0.0,
        0.0,
        0.0,
        1.163865327835083,
        0.0,
        0.0,
        0.0,
        0.0,
        1.163865327835083,
        0.0,
        -1.365691065788269,
        8.065606117248535,
        2.487196445465088,
        1.0
      ],
      "name": "ENERGYBALL_2"
    },
    {
      "mesh": 4,
      "name": "Object_9"
    },
    {
      "children": [
        11,
        12
      ],
      "matrix": [
        0.34590469686975134,
        0.0,
        -0.7014614690694982,
        0.0,
        0.0,
        0.782111406326294,
        0.0,
        0.0,
        0.7014614690694982,
        0.0,
        0.34590469686975134,
        0.0,
        4.0226664543151855,
        1.1038036346435547,
        8.37874984741211,
        1.0
      ],
      "name": "mew_7"
    },
    {
      "mesh": 5,
      "name": "Object_11"
    },
    {
      "mesh": 6,
      "name": "Object_12"
    },
    {
      "children": [
        14
      ],
      "matrix": [
        1.0,
        0.0,
        0.0,
        0.0,
        0.0,
        1.0,
        0.0,
        0.0,
        0.0,
        0.0,
        1.0,
        0.0,
        3.8469078540802,
        1.8333120346069336,
        8.144735336303711,
        1.0
      ],
      "name": "relampago_8"
    },
    {
      "mesh": 7,
      "name": "Object_14"
    }
  ],
  "samplers": [
    {
      "magFilter": 9729,
      "minFilter": 9987,
      "wrapS": 10497,
      "wrapT": 10497
    }
  ],
  "scene": 0,
  "scenes": [
    {
      "name": "Sketchfab_Scene",
      "nodes": [
        0
      ]
    }
  ],
  "textures": [
    {
      "sampler": 0,
      "source": 0
    },
    {
      "sampler": 0,
      "source": 1
    },
    {
      "sampler": 0,
      "source": 2
    },
    {
      "sampler": 0,
      "source": 3
    }
  ]
}
