{
  "accessors": [
    {
      "bufferView": 2,
      "componentType": 5126,
      "count": 26,
      "max": [
        6.0,
        0.25,
        6.25
      ],
      "min": [
        0.0,
        -0.25,
        -0.25
      ],
      "type": "VEC3"
    },
    {
      "bufferView": 2,
      "byteOffset": 312,
      "componentType": 5126,
      "count": 26,
      "max": [
        1.0,
        0.9992353320121765,
        0.9992353320121765
      ],
      "min": [
        -0.7071068286895752,
        -0.0,
        -0.9992352724075317
      ],
      "type": "VEC3"
    },
    {
      "bufferView": 1,
      "componentType": 5126,
      "count": 26,
      "max": [
        0.0,
        0.0
      ],
      "min": [
        0.0,
        0.0
      ],
      "type": "VEC2"
    },
    {
      "bufferView": 0,
      "componentType": 5125,
      "count": 252,
      "type": "SCALAR"
    },
    {
      "bufferView": 2,
      "byteOffset": 624,
      "componentType": 5126,
      "count": 1640,
      "max": [
        8.498461723327637,
        8.313109397888184,
        19.591846466064453
      ],
      "min": [
        -9.822321891784668,
        -8.090665817260742,
        -0.030818000435829163
      ],
      "type": "VEC3"
    },
    {
      "bufferView": 2,
      "byteOffset": 20304,
      "componentType": 5126,
      "count": 1640,
      "max": [
        0.9991644620895386,
        0.9994925260543823,
        0.9999182224273682
      ],
      "min": [
        -0.9984973669052124,
        -0.9992204904556274,
        -0.9999447464942932
      ],
      "type": "VEC3"
    },
    {
      "bufferView": 1,
      "byteOffset": 208,
      "componentType": 5126,
      "count": 1640,
      "max": [
        0.9970870018005371,
        0.9903439879417419
      ],
      "min": [
        0.011744000017642975,
        0.001996000064536929
      ],
      "type": "VEC2"
    },
    {
      "bufferView": 0,
      "byteOffset": 1008,
      "componentType": 5125,
      "count": 5286,
      "type": "SCALAR"
    }
  ],
  "asset": {
    "extras": {
      "author": "serienreviewer (https://sketchfab.com/serienreviewer)",
      "license": "CC-BY-4.0 (http://creativecommons.org/licenses/by/4.0/)",
      "source": "https://sketchfab.com/3d-models/palkia-2da99ebebb944185b2e32356c921ba90",
      "title": "Palkia"
    },
    "generator": "Sketchfab-12.68.0",
    "version": "2.0"
  },
  "bufferViews": [
    {
      "buffer": 0,
      "byteLength": 22152,
      "name": "floatBufferViews",
      "target": 34963
    },
    {
      "buffer": 0,
      "byteLength": 13328,
      "byteOffset": 22152,
      "byteStride": 8,
      "name": "floatBufferViews",
      "target": 34962
    },
    {
      "buffer": 0,
      "byteLength": 39984,
      "byteOffset": 35480,
      "byteStride": 12,
      "name": "floatBufferViews",
      "target": 34962
    }
  ],
  "buffers": [
    {
      "byteLength": 75464,
      "uri": "scene.bin"
    }
  ],
  "images": [
    {
      "uri": "textures/Scene_-_Root_baseColor.png"
    }
  ],
  "materials": [
    {
      "doubleSided": true,
      "name": "Scene_-_Root",
      "pbrMetallicRoughness": {
        "baseColorTexture": {
          "index": 0
        },
        "metallicFactor": 0.0,
        "roughnessFactor": 0.6
      }
    }
  ],
  "meshes": [
    {
      "name": "Object_0",
      "primitives": [
        {
          "attributes": {
            "NORMAL": 1,
            "POSITION": 0,
            "TEXCOORD_0": 2
          },
          "indices": 3,
          "material": 0,
          "mode": 4
        }
      ]
    },
    {
      "name": "Object_1",
      "primitives": [
        {
          "attributes": {
            "NORMAL": 5,
            "POSITION": 4,
            "TEXCOORD_0": 6
          },
          "indices": 7,
          "material": 0,
          "mode": 4
        }
      ]
    }
  ],
  "nodes": [
    {
      "children": [
        1
      ],
      "matrix": [
        1.0,
        0.0,
        0.0,
        0.0,
        0.0,
        2.220446049250313e-16,
        -1.0,
        0.0,
        0.0,
        1.0,
        2.220446049250313e-16,
        0.0,
        0.0,
        0.0,
        0.0,
        1.0
      ],
      "name": "Sketchfab_model"
    },
    {
      "children": [
        2,
        3
      ],
      "name": "6e9010d8d26c4d2fb99eda2bb91dd292.obj.cleaner"
    },
    {
      "mesh": 0,
      "name": "Object_2"
    },
    {
      "mesh": 1,
      "name": "Object_3"
    }
  ],
  "samplers": [
    {
      "magFilter": 9729,
      "minFilter": 9987,
      "wrapS": 10497,
      "wrapT": 10497
    }
  ],
  "scene": 0,
  "scenes": [
    {
      "name": "Sketchfab_Scene",
      "nodes": [
        0
      ]
    }
  ],
  "textures": [
    {
      "sampler": 0,
      "source": 0
    }
  ]
}
