{
  "accessors": [
    {
      "bufferView": 2,
      "componentType": 5126,
      "count": 2030,
      "max": [
        200.00010681152344,
        15.027970314025879,
        400.2001037597656
      ],
      "min": [
        -799.9500732421875,
        -146.43609619140625,
        -400.0
      ],
      "type": "VEC3"
    },
    {
      "bufferView": 2,
      "byteOffset": 24360,
      "componentType": 5126,
      "count": 2030,
      "max": [
        1.0,
        1.0,
        1.0
      ],
      "min": [
        -1.0,
        -1.0,
        -1.0
      ],
      "type": "VEC3"
    },
    {
      "bufferView": 1,
      "componentType": 5126,
      "count": 2030,
      "max": [
        0.989654004573822,
        0.9895750284194946
      ],
      "min": [
        0.0005000000237487257,
        0.0005000000237487257
      ],
      "type": "VEC2"
    },
    {
      "bufferView": 0,
      "componentType": 5125,
      "count": 6030,
      "type": "SCALAR"
    },
    {
      "bufferView": 2,
      "byteOffset": 48720,
      "componentType": 5126,
      "count": 3222,
      "max": [
        200.00010681152344,
        8.564000129699707,
        200.00010681152344
      ],
      "min": [
        -600.0001220703125,
        3.563920021057129,
        -400.0000915527344
      ],
      "type": "VEC3"
    },
    {
      "bufferView": 2,
      "byteOffset": 87384,
      "componentType": 5126,
      "count": 3222,
      "max": [
        1.0,
        1.0,
        1.0
      ],
      "min": [
        -1.0,
        -1.0,
        -1.0
      ],
      "type": "VEC3"
    },
    {
      "bufferView": 1,
      "byteOffset": 16240,
      "componentType": 5126,
      "count": 3222,
      "max": [
        0.9982939958572388,
        0.9961749911308289
      ],
      "min": [
        0.23175500333309174,
        0.05189000070095062
      ],
      "type": "VEC2"
    },
    {
      "bufferView": 0,
      "byteOffset": 24120,
      "componentType": 5125,
      "count": 6192,
      "type": "SCALAR"
    },
    {
      "bufferView": 2,
      "byteOffset": 126048,
      "componentType": 5126,
      "count": 10048,
      "max": [
        -399.5498046875,
        19.953189849853516,
        400.2001037597656
      ],
      "min": [
        -799.9500732421875,
        14.953189849853516,
        -0.20010000467300415
      ],
      "type": "VEC3"
    },
    {
      "bufferView": 2,
      "byteOffset": 246624,
      "componentType": 5126,
      "count": 10048,
      "max": [
        0.9999886751174927,
        0.9999999403953552,
        0.99998939037323
      ],
      "min": [
        -0.9999887943267822,
        -0.9999999403953552,
        -0.9999886155128479
      ],
      "type": "VEC3"
    },
    {
      "bufferView": 1,
      "byteOffset": 42016,
      "componentType": 5126,
      "count": 10048,
      "max": [
        0.989753007888794,
        0.988988995552063
      ],
      "min": [
        0.33453598618507385,
        0.05189000070095062
      ],
      "type": "VEC2"
    },
    {
      "bufferView": 0,
      "byteOffset": 48888,
      "componentType": 5125,
      "count": 40320,
      "type": "SCALAR"
    },
    {
      "bufferView": 2,
      "byteOffset": 367200,
      "componentType": 5126,
      "count": 33889,
      "max": [
        200.0,
        1.0131499767303467,
        348.0
      ],
      "min": [
        -747.7501831054688,
        -1.4311100244522095,
        -400.0
      ],
      "type": "VEC3"
    },
    {
      "bufferView": 2,
      "byteOffset": 773868,
      "componentType": 5126,
      "count": 33889,
      "max": [
        0.20873971283435822,
        1.0,
        0.17354963719844818
      ],
      "min": [
        -0.19696025550365448,
        0.9779555201530457,
        -0.12260042130947113
      ],
      "type": "VEC3"
    },
    {
      "bufferView": 1,
      "byteOffset": 122400,
      "componentType": 5126,
      "count": 33889,
      "max": [
        0.8481209874153137,
        0.2569670081138611
      ],
      "min": [
        0.004782999865710735,
        0.0005000000237487257
      ],
      "type": "VEC2"
    },
    {
      "bufferView": 0,
      "byteOffset": 210168,
      "componentType": 5125,
      "count": 200328,
      "type": "SCALAR"
    },
    {
      "bufferView": 2,
      "byteOffset": 1180536,
      "componentType": 5126,
      "count": 4800,
      "max": [
        230.2342987060547,
        93.30563354492188,
        100.81700134277344
      ],
      "min": [
        161.51040649414063,
        -146.6136932373047,
        46.95132827758789
      ],
      "type": "VEC3"
    },
    {
      "bufferView": 2,
      "byteOffset": 1238136,
      "componentType": 5126,
      "count": 4800,
      "max": [
        1.0,
        1.0,
        1.0
      ],
      "min": [
        -1.0,
        -1.0,
        -1.0
      ],
      "type": "VEC3"
    },
    {
      "bufferView": 1,
      "byteOffset": 393512,
      "componentType": 5126,
      "count": 4800,
      "max": [
        0.9991779923439026,
        0.9994999766349792
      ],
      "min": [
        0.009065000340342522,
        0.16323499381542206
      ],
      "type": "VEC2"
    },
    {
      "bufferView": 0,
      "byteOffset": 1011480,
      "componentType": 5125,
      "count": 18000,
      "type": "SCALAR"
    },
    {
      "bufferView": 2,
      "byteOffset": 1295736,
      "componentType": 5126,
      "count": 14321,
      "max": [
        179.9803924560547,
        -64.50953674316406,
        180.04359436035156
      ],
      "min": [
        -579.9816284179688,
        -83.70953369140625,
        -379.98919677734375
      ],
      "type": "VEC3"
    },
    {
      "bufferView": 2,
      "byteOffset": 1467588,
      "componentType": 5126,
      "count": 14321,
      "max": [
        1.0,
        0.9999992251396179,
        1.0
      ],
      "min": [
        -1.0,
        -0.9999992251396179,
        -1.0
      ],
      "type": "VEC3"
    },
    {
      "bufferView": 1,
      "byteOffset": 431912,
      "componentType": 5126,
      "count": 14321,
      "max": [
        0.9984300136566162,
        0.9297890067100525
      ],
      "min": [
        0.5443789958953857,
        0.05189000070095062
      ],
      "type": "VEC2"
    },
    {
      "bufferView": 0,
      "byteOffset": 1083480,
      "componentType": 5125,
      "count": 49392,
      "type": "SCALAR"
    },
    {
      "bufferView": 2,
      "byteOffset": 1639440,
      "componentType": 5126,
      "count": 48,
      "max": [
        179.51950073242188,
        -69.86412811279297,
        179.58270263671875
      ],
      "min": [
        -579.5208129882813,
        -70.41439056396484,
        -379.5282897949219
      ],
      "type": "VEC3"
    },
    {
      "bufferView": 2,
      "byteOffset": 1640016,
      "componentType": 5126,
      "count": 48,
      "max": [
        0.18268287181854248,
        -0.9831710457801819,
        0.18268705904483795
      ],
      "min": [
        -0.18268226087093353,
        -0.9831727743148804,
        -0.18268616497516632
      ],
      "type": "VEC3"
    },
    {
      "bufferView": 1,
      "byteOffset": 546480,
      "componentType": 5126,
      "count": 48,
      "max": [
        0.78118497133255,
        0.8282920122146606
      ],
      "min": [
        0.5443789958953857,
        0.35166600346565247
      ],
      "type": "VEC2"
    },
    {
      "bufferView": 0,
      "byteOffset": 1281048,
      "componentType": 5125,
      "count": 72,
      "type": "SCALAR"
    },
    {
      "bufferView": 2,
      "byteOffset": 1640592,
      "componentType": 5126,
      "count": 3144,
      "max": [
        104.84269714355469,
        -124.033203125,
        104.81410217285156
      ],
      "min": [
        -504.7596130371094,
        -126.9905014038086,
        -304.7596130371094
      ],
      "type": "VEC3"
    },
    {
      "bufferView": 2,
      "byteOffset": 1678320,
      "componentType": 5126,
      "count": 3144,
      "max": [
        0.999885082244873,
        1.0,
        0.9998853206634521
      ],
      "min": [
        -0.9998844861984253,
        -1.0,
        -0.9998853802680969
      ],
      "type": "VEC3"
    },
    {
      "bufferView": 1,
      "byteOffset": 546864,
      "componentType": 5126,
      "count": 3144,
      "max": [
        0.8748210072517395,
        0.8491290211677551
      ],
      "min": [
        0.7456560134887695,
        0.5015529990196228
      ],
      "type": "VEC2"
    },
    {
      "bufferView": 0,
      "byteOffset": 1281336,
      "componentType": 5125,
      "count": 9180,
      "type": "SCALAR"
    },
    {
      "bufferView": 2,
      "byteOffset": 1716048,
      "componentType": 5126,
      "count": 1216,
      "max": [
        -504.65570068359375,
        -79.29141998291016,
        295.0928039550781
      ],
      "min": [
        -694.8430786132813,
        -80.00187683105469,
        104.90550231933594
      ],
      "type": "VEC3"
    },
    {
      "bufferView": 2,
      "byteOffset": 1730640,
      "componentType": 5126,
      "count": 1216,
      "max": [
        0.8548163175582886,
        0.999998152256012,
        0.8548009991645813
      ],
      "min": [
        -0.8548126816749573,
        -0.999998152256012,
        -0.8547705411911011
      ],
      "type": "VEC3"
    },
    {
      "bufferView": 1,
      "byteOffset": 572016,
      "componentType": 5126,
      "count": 1216,
      "max": [
        0.9894890189170837,
        0.9262779951095581
      ],
      "min": [
        0.32597100734710693,
        0.060454998165369034
      ],
      "type": "VEC2"
    },
    {
      "bufferView": 0,
      "byteOffset": 1318056,
      "componentType": 5125,
      "count": 4608,
      "type": "SCALAR"
    }
  ],
  "asset": {
    "extras": {
      "author": "polyowlstudios (https://sketchfab.com/polyowlstudios)",
      "license": "CC-BY-4.0 (http://creativecommons.org/licenses/by/4.0/)",
      "source": "https://sketchfab.com/3d-models/swimming-pool-31ac24753efa4950a3d2ad030c81b3d8",
      "title": "swimming pool"
    },
    "generator": "Sketchfab-15.42.0",
    "version": "2.0"
  },
  "bufferViews": [
    {
      "buffer": 0,
      "byteLength": 1336488,
      "name": "floatBufferViews",
      "target": 34963
    },
    {
      "buffer": 0,
      "byteLength": 581744,
      "byteOffset": 1336488,
      "byteStride": 8,
      "name": "floatBufferViews",
      "target": 34962
    },
    {
      "buffer": 0,
      "byteLength": 1745232,
      "byteOffset": 1918232,
      "byteStride": 12,
      "name": "floatBufferViews",
      "target": 34962
    }
  ],
  "buffers": [
    {
      "byteLength": 3663464,
      "uri": "scene.bin"
    }
  ],
  "images": [
    {
      "uri": "textures/SPA_Exterior_Swimming_Pool_Tilles_baseColor.jpeg"
    },
    {
      "uri": "textures/SPA_Exterior_Swimming_Pool_Concrete_baseColor.jpeg"
    },
    {
      "uri": "textures/SPA_Exterior_Swimming_Pool_Wood_baseColor.jpeg"
    },
    {
      "uri": "textures/SPA_Exterior_Swimming_Pool_Water_baseColor.jpeg"
    }
  ],
  "materials": [
    {
      "doubleSided": true,
      "name": "SPA_Exterior_Swimming_Pool_Tilles",
      "pbrMetallicRoughness": {
        "baseColorTexture": {
          "index": 0
        },
        "metallicFactor": 0.0,
        "roughnessFactor": 0.9577051494623774
      }
    },
    {
      "doubleSided": true,
      "name": "SPA_Exterior_Swimming_Pool_Concrete",
      "pbrMetallicRoughness": {
        "baseColorTexture": {
          "index": 1
        },
        "metallicFactor": 0.0,
        "roughnessFactor": 0.9577051494623774
      }
    },
    {
      "doubleSided": true,
      "name": "SPA_Exterior_Swimming_Pool_Wood",
      "pbrMetallicRoughness": {
        "baseColorTexture": {
          "index": 2
        },
        "metallicFactor": 0.0,
        "roughnessFactor": 0.9577051494623774
      }
    },
    {
      "doubleSided": true,
      "name": "SPA_Exterior_Swimming_Pool_Water",
      "pbrMetallicRoughness": {
        "baseColorTexture": {
          "index": 3
        },
        "metallicFactor": 0.0,
        "roughnessFactor": 0.9577051494623774
      }
    },
    {
      "doubleSided": true,
      "name": "SPA_Exterior_Swimming_Pool_Metal",
      "pbrMetallicRoughness": {
        "baseColorFactor": [
          0.768627,
          0.780392,
          0.780392,
          1.0
        ],
        "metallicFactor": 0.0,
        "roughnessFactor": 0.9577051494623774
      }
    },
    {
      "doubleSided": true,
      "name": "SPA_Exterior_Swimming_Plastic",
      "pbrMetallicRoughness": {
        "baseColorFactor": [
          0.768627,
          0.780392,
          0.780392,
          1.0
        ],
        "metallicFactor": 0.0,
        "roughnessFactor": 0.9577051494623774
      }
    },
    {
      "doubleSided": true,
      "name": "SPA_Exterior_Swimming_Pool_EMIS_2",
      "pbrMetallicRoughness": {
        "baseColorFactor": [
          0.0,
          0.0,
          0.0,
          1.0
        ],
        "metallicFactor": 0.0,
        "roughnessFactor": 0.9577051494623774
      }
    },
    {
      "doubleSided": true,
      "name": "SPA_Exterior_Swimming_Plastic_2",
      "pbrMetallicRoughness": {
        "baseColorFactor": [
          0.835294,
          0.815686,
          0.784314,
          1.0
        ],
        "metallicFactor": 0.0,
        "roughnessFactor": 0.9577051494623774
      }
    },
    {
      "doubleSided": true,
      "name": "SPA_Exterior_Swimming_Pool_EMIS",
      "pbrMetallicRoughness": {
        "baseColorFactor": [
          0.0,
          0.0,
          0.0,
          1.0
        ],
        "metallicFactor": 0.0,
        "roughnessFactor": 0.9577051494623774
      }
    }
  ],
  "meshes": [
    {
      "name": "SPA_Exterior_Swimming_Pool.Shape_SPA_Exterior_Swimming_Pool_Tilles_0",
      "primitives": [
        {
          "attributes": {
            "NORMAL": 1,
            "POSITION": 0,
            "TEXCOORD_0": 2
          },
          "indices": 3,
          "material": 0,
          "mode": 4
        }
      ]
    },
    {
      "name": "SPA_Exterior_Swimming_Pool.Shape_SPA_Exterior_Swimming_Pool_Concrete_0",
      "primitives": [
        {
          "attributes": {
            "NORMAL": 5,
            "POSITION": 4,
            "TEXCOORD_0": 6
          },
          "indices": 7,
          "material": 1,
          "mode": 4
        }
      ]
    },
    {
      "name": "SPA_Exterior_Swimming_Pool.Shape_SPA_Exterior_Swimming_Pool_Wood_0",
      "primitives": [
        {
          "attributes": {
            "NORMAL": 9,
            "POSITION": 8,
            "TEXCOORD_0": 10
          },
          "indices": 11,
          "material": 2,
          "mode": 4
        }
      ]
    },
    {
      "name": "SPA_Exterior_Swimming_Pool.Shape_SPA_Exterior_Swimming_Pool_Water_0",
      "primitives": [
        {
          "attributes": {
            "NORMAL": 13,
            "POSITION": 12,
            "TEXCOORD_0": 14
          },
          "indices": 15,
          "material": 3,
          "mode": 4
        }
      ]
    },
    {
      "name": "SPA_Exterior_Swimming_Pool.Shape_SPA_Exterior_Swimming_Pool_Metal_0",
      "primitives": [
        {
          "attributes": {
            "NORMAL": 17,
            "POSITION": 16,
            "TEXCOORD_0": 18
          },
          "indices": 19,
          "material": 4,
          "mode": 4
        }
      ]
    },
    {
      "name": "SPA_Exterior_Swimming_Pool.Shape_SPA_Exterior_Swimming_Plastic_0",
      "primitives": [
        {
          "attributes": {
            "NORMAL": 21,
            "POSITION": 20,
            "TEXCOORD_0": 22
          },
          "indices": 23,
          "material": 5,
          "mode": 4
        }
      ]
    },
    {
      "name": "SPA_Exterior_Swimming_Pool.Shape_SPA_Exterior_Swimming_Pool_EMIS_2_0",
      "primitives": [
        {
          "attributes": {
            "NORMAL": 25,
            "POSITION": 24,
            "TEXCOORD_0": 26
          },
          "indices": 27,
          "material": 6,
          "mode": 4
        }
      ]
    },
    {
      "name": "SPA_Exterior_Swimming_Pool.Shape_SPA_Exterior_Swimming_Plastic_2_0",
      "primitives": [
        {
          "attributes": {
            "NORMAL": 29,
            "POSITION": 28,
            "TEXCOORD_0": 30
          },
          "indices": 31,
          "material": 7,
          "mode": 4
        }
      ]
    },
    {
      "name": "SPA_Exterior_Swimming_Pool.Shape_SPA_Exterior_Swimming_Pool_EMIS_0",
      "primitives": [
        {
          "attributes": {
            "NORMAL": 33,
            "POSITION": 32,
            "TEXCOORD_0": 34
          },
          "indices": 35,
          "material": 8,
          "mode": 4
        }
      ]
    }
  ],
  "nodes": [
    {
      "children": [
        1
      ],
      "matrix": [
        1.0,
        0.0,
        0.0,
        0.0,
        0.0,
        2.220446049250313e-16,
        -1.0,
        0.0,
        0.0,
        1.0,
        2.220446049250313e-16,
        0.0,
        0.0,
        0.0,
        0.0,
        1.0
      ],
      "name": "Sketchfab_model"
    },
    {
      "children": [
        2
      ],
      "matrix": [
        0.009999999776482582,
        0.0,
        0.0,
        0.0,
        0.0,
        0.0,
        0.009999999776482582,
        0.0,
        0.0,
        -0.009999999776482582,
        0.0,
        0.0,
        0.0,
        0.0,
        0.0,
        1.0
      ],
      "name": "Swiming Pool.fbx"
    },
    {
      "children": [
        3
      ],
      "name": "RootNode"
    },
    {
      "children": [
        4
      ],
      "name": "SPA_Exterior_Swimming_Pool"
    },
    {
      "children": [
        5,
        6,
        7,
        8,
        9,
        10,
        11,
        12,
        13
      ],
      "name": "SPA_Exterior_Swimming_Pool.Shape"
    },
    {
      "mesh": 0,
      "name": "SPA_Exterior_Swimming_Pool.Shape_SPA_Exterior_Swimming_Pool_Tilles_0"
    },
    {
      "mesh": 1,
      "name": "SPA_Exterior_Swimming_Pool.Shape_SPA_Exterior_Swimming_Pool_Concrete_0"
    },
    {
      "mesh": 2,
      "name": "SPA_Exterior_Swimming_Pool.Shape_SPA_Exterior_Swimming_Pool_Wood_0"
    },
    {
      "mesh": 3,
      "name": "SPA_Exterior_Swimming_Pool.Shape_SPA_Exterior_Swimming_Pool_Water_0"
    },
    {
      "mesh": 4,
      "name": "SPA_Exterior_Swimming_Pool.Shape_SPA_Exterior_Swimming_Pool_Metal_0"
    },
    {
      "mesh": 5,
      "name": "SPA_Exterior_Swimming_Pool.Shape_SPA_Exterior_Swimming_Plastic_0"
    },
    {
      "mesh": 6,
      "name": "SPA_Exterior_Swimming_Pool.Shape_SPA_Exterior_Swimming_Pool_EMIS_2_0"
    },
    {
      "mesh": 7,
      "name": "SPA_Exterior_Swimming_Pool.Shape_SPA_Exterior_Swimming_Plastic_2_0"
    },
    {
      "mesh": 8,
      "name": "SPA_Exterior_Swimming_Pool.Shape_SPA_Exterior_Swimming_Pool_EMIS_0"
    }
  ],
  "samplers": [
    {
      "magFilter": 9729,
      "minFilter": 9987,
      "wrapS": 10497,
      "wrapT": 10497
    }
  ],
  "scene": 0,
  "scenes": [
    {
      "name": "Sketchfab_Scene",
      "nodes": [
        0
      ]
    }
  ],
  "textures": [
    {
      "sampler": 0,
      "source": 0
    },
    {
      "sampler": 0,
      "source": 1
    },
    {
      "sampler": 0,
      "source": 2
    },
    {
      "sampler": 0,
      "source": 3
    }
  ]
}
